<mxfile host="app.diagrams.net" agent="Mozilla/5.0 (Windows NT 10.0; Win64; x64) AppleWebKit/537.36 (KHTML, like Gecko) Chrome/128.0.0.0 Safari/537.36" version="24.7.8">
  <diagram name="Page-1" id="OPDaUvZI7aXmMgQkpC-T">
    <mxGraphModel dx="1877" dy="565" grid="1" gridSize="10" guides="1" tooltips="1" connect="1" arrows="1" fold="1" page="1" pageScale="1" pageWidth="827" pageHeight="1169" math="0" shadow="0">
      <root>
        <mxCell id="0" />
        <mxCell id="1" parent="0" />
        <mxCell id="XRhQmhR6qjBcn8VVitBR-10" style="rounded=0;orthogonalLoop=1;jettySize=auto;html=1;exitX=0.75;exitY=0;exitDx=0;exitDy=0;entryX=0.5;entryY=1;entryDx=0;entryDy=0;endArrow=none;endFill=0;" parent="1" source="XRhQmhR6qjBcn8VVitBR-1" target="XRhQmhR6qjBcn8VVitBR-4" edge="1">
          <mxGeometry relative="1" as="geometry" />
        </mxCell>
        <mxCell id="XRhQmhR6qjBcn8VVitBR-13" style="rounded=0;orthogonalLoop=1;jettySize=auto;html=1;exitX=0;exitY=0;exitDx=0;exitDy=0;entryX=1;entryY=1;entryDx=0;entryDy=0;endArrow=none;endFill=0;" parent="1" source="XRhQmhR6qjBcn8VVitBR-1" target="XRhQmhR6qjBcn8VVitBR-2" edge="1">
          <mxGeometry relative="1" as="geometry" />
        </mxCell>
        <mxCell id="XRhQmhR6qjBcn8VVitBR-14" style="rounded=0;orthogonalLoop=1;jettySize=auto;html=1;exitX=0.345;exitY=-0.015;exitDx=0;exitDy=0;entryX=0.5;entryY=1;entryDx=0;entryDy=0;endArrow=none;endFill=0;exitPerimeter=0;" parent="1" source="XRhQmhR6qjBcn8VVitBR-1" target="XRhQmhR6qjBcn8VVitBR-3" edge="1">
          <mxGeometry relative="1" as="geometry" />
        </mxCell>
        <mxCell id="LFgC7dUqhhn3A7_hZchA-105" style="rounded=0;orthogonalLoop=1;jettySize=auto;html=1;exitX=1;exitY=0;exitDx=0;exitDy=0;entryX=0.363;entryY=0.961;entryDx=0;entryDy=0;endArrow=none;endFill=0;entryPerimeter=0;" parent="1" source="XRhQmhR6qjBcn8VVitBR-1" target="LFgC7dUqhhn3A7_hZchA-104" edge="1">
          <mxGeometry relative="1" as="geometry" />
        </mxCell>
        <mxCell id="XRhQmhR6qjBcn8VVitBR-1" value="User" style="rounded=0;whiteSpace=wrap;html=1;" parent="1" vertex="1">
          <mxGeometry x="361" y="203" width="120" height="40" as="geometry" />
        </mxCell>
        <mxCell id="XRhQmhR6qjBcn8VVitBR-2" value="&lt;u&gt;Id&lt;/u&gt;" style="ellipse;whiteSpace=wrap;html=1;" parent="1" vertex="1">
          <mxGeometry x="256.06" y="70" width="70" height="30" as="geometry" />
        </mxCell>
        <mxCell id="XRhQmhR6qjBcn8VVitBR-3" value="Name" style="ellipse;whiteSpace=wrap;html=1;" parent="1" vertex="1">
          <mxGeometry x="327.56" y="56.75" width="70" height="35" as="geometry" />
        </mxCell>
        <mxCell id="XRhQmhR6qjBcn8VVitBR-4" value="HashedPassword" style="ellipse;whiteSpace=wrap;html=1;" parent="1" vertex="1">
          <mxGeometry x="406.87" y="51.75" width="105" height="40" as="geometry" />
        </mxCell>
        <mxCell id="XRhQmhR6qjBcn8VVitBR-102" style="rounded=0;orthogonalLoop=1;jettySize=auto;html=1;entryX=1;entryY=1;entryDx=0;entryDy=0;endArrow=none;endFill=0;exitX=-0.002;exitY=0.18;exitDx=0;exitDy=0;exitPerimeter=0;" parent="1" source="LFgC7dUqhhn3A7_hZchA-33" target="XRhQmhR6qjBcn8VVitBR-100" edge="1">
          <mxGeometry relative="1" as="geometry">
            <mxPoint x="58" y="1156.6299999999999" as="sourcePoint" />
          </mxGeometry>
        </mxCell>
        <mxCell id="XRhQmhR6qjBcn8VVitBR-155" style="rounded=0;orthogonalLoop=1;jettySize=auto;html=1;exitX=1;exitY=0.5;exitDx=0;exitDy=0;entryX=0.5;entryY=0;entryDx=0;entryDy=0;endArrow=none;endFill=0;shape=link;edgeStyle=orthogonalEdgeStyle;" parent="1" source="LFgC7dUqhhn3A7_hZchA-33" target="XRhQmhR6qjBcn8VVitBR-154" edge="1">
          <mxGeometry relative="1" as="geometry">
            <mxPoint x="175.05999999999977" y="1300.58" as="sourcePoint" />
          </mxGeometry>
        </mxCell>
        <mxCell id="mx9bK30Ubpo_IQFIx3bl-10" style="rounded=0;orthogonalLoop=1;jettySize=auto;html=1;exitX=0.5;exitY=1;exitDx=0;exitDy=0;entryX=0.5;entryY=0;entryDx=0;entryDy=0;endArrow=none;endFill=0;shape=link;" parent="1" source="XRhQmhR6qjBcn8VVitBR-50" target="mx9bK30Ubpo_IQFIx3bl-9" edge="1">
          <mxGeometry relative="1" as="geometry" />
        </mxCell>
        <mxCell id="XRhQmhR6qjBcn8VVitBR-50" value="FTC" style="rounded=0;whiteSpace=wrap;html=1;" parent="1" vertex="1">
          <mxGeometry x="-260" y="125.57" width="120" height="40" as="geometry" />
        </mxCell>
        <mxCell id="XRhQmhR6qjBcn8VVitBR-60" style="edgeStyle=orthogonalEdgeStyle;rounded=0;orthogonalLoop=1;jettySize=auto;html=1;exitX=1;exitY=0.75;exitDx=0;exitDy=0;entryX=0;entryY=0.5;entryDx=0;entryDy=0;endArrow=none;endFill=0;" parent="1" source="XRhQmhR6qjBcn8VVitBR-51" target="LFgC7dUqhhn3A7_hZchA-39" edge="1">
          <mxGeometry relative="1" as="geometry">
            <mxPoint x="525.06" y="1118.4600000000005" as="targetPoint" />
          </mxGeometry>
        </mxCell>
        <mxCell id="XRhQmhR6qjBcn8VVitBR-69" style="rounded=0;orthogonalLoop=1;jettySize=auto;html=1;exitX=0.25;exitY=0;exitDx=0;exitDy=0;entryX=0.5;entryY=1;entryDx=0;entryDy=0;endArrow=none;endFill=0;" parent="1" source="XRhQmhR6qjBcn8VVitBR-51" target="XRhQmhR6qjBcn8VVitBR-68" edge="1">
          <mxGeometry relative="1" as="geometry" />
        </mxCell>
        <mxCell id="XRhQmhR6qjBcn8VVitBR-75" style="rounded=0;orthogonalLoop=1;jettySize=auto;html=1;entryX=1;entryY=1;entryDx=0;entryDy=0;endArrow=none;endFill=0;exitX=0.135;exitY=-0.004;exitDx=0;exitDy=0;exitPerimeter=0;" parent="1" source="XRhQmhR6qjBcn8VVitBR-51" target="XRhQmhR6qjBcn8VVitBR-74" edge="1">
          <mxGeometry relative="1" as="geometry">
            <mxPoint x="411" y="972.88" as="sourcePoint" />
          </mxGeometry>
        </mxCell>
        <mxCell id="uz5s3VPcYe5UYgjy9mx2-343" style="edgeStyle=orthogonalEdgeStyle;rounded=0;orthogonalLoop=1;jettySize=auto;html=1;exitX=0.5;exitY=0;exitDx=0;exitDy=0;entryX=0.5;entryY=1;entryDx=0;entryDy=0;endArrow=none;endFill=0;shape=link;" parent="1" source="XRhQmhR6qjBcn8VVitBR-51" target="uz5s3VPcYe5UYgjy9mx2-335" edge="1">
          <mxGeometry relative="1" as="geometry" />
        </mxCell>
        <mxCell id="Yb0VxK4vsEoRjDZreyK2-11" style="edgeStyle=orthogonalEdgeStyle;rounded=0;orthogonalLoop=1;jettySize=auto;html=1;exitX=0.75;exitY=1;exitDx=0;exitDy=0;entryX=0.5;entryY=0;entryDx=0;entryDy=0;endArrow=none;endFill=0;" parent="1" source="XRhQmhR6qjBcn8VVitBR-51" target="Yb0VxK4vsEoRjDZreyK2-10" edge="1">
          <mxGeometry relative="1" as="geometry" />
        </mxCell>
        <mxCell id="ODht4TJ9SO5vpi4dF8H--30" style="rounded=0;orthogonalLoop=1;jettySize=auto;html=1;exitX=0;exitY=0;exitDx=0;exitDy=0;entryX=1;entryY=1;entryDx=0;entryDy=0;endArrow=none;endFill=0;dashed=1;" parent="1" source="XRhQmhR6qjBcn8VVitBR-51" target="ODht4TJ9SO5vpi4dF8H--29" edge="1">
          <mxGeometry relative="1" as="geometry" />
        </mxCell>
        <mxCell id="XRhQmhR6qjBcn8VVitBR-51" value="Form" style="rounded=0;whiteSpace=wrap;html=1;" parent="1" vertex="1">
          <mxGeometry x="430.06" y="973.14" width="120" height="40" as="geometry" />
        </mxCell>
        <mxCell id="XRhQmhR6qjBcn8VVitBR-223" style="rounded=0;orthogonalLoop=1;jettySize=auto;html=1;exitX=0;exitY=0.75;exitDx=0;exitDy=0;entryX=1;entryY=0.5;entryDx=0;entryDy=0;endArrow=none;endFill=0;" parent="1" source="XRhQmhR6qjBcn8VVitBR-52" target="XRhQmhR6qjBcn8VVitBR-222" edge="1">
          <mxGeometry relative="1" as="geometry" />
        </mxCell>
        <mxCell id="ODht4TJ9SO5vpi4dF8H--15" style="edgeStyle=orthogonalEdgeStyle;rounded=0;orthogonalLoop=1;jettySize=auto;html=1;exitX=0.25;exitY=1;exitDx=0;exitDy=0;entryX=0;entryY=0.5;entryDx=0;entryDy=0;endArrow=none;endFill=0;" parent="1" source="XRhQmhR6qjBcn8VVitBR-52" target="ODht4TJ9SO5vpi4dF8H--14" edge="1">
          <mxGeometry relative="1" as="geometry">
            <Array as="points">
              <mxPoint x="618" y="1210" />
              <mxPoint x="590" y="1210" />
              <mxPoint x="590" y="1252" />
            </Array>
          </mxGeometry>
        </mxCell>
        <mxCell id="XRhQmhR6qjBcn8VVitBR-52" value="Inconsistency" style="rounded=0;whiteSpace=wrap;html=1;" parent="1" vertex="1">
          <mxGeometry x="587.8699999999999" y="1134.5500000000002" width="120" height="40" as="geometry" />
        </mxCell>
        <mxCell id="XRhQmhR6qjBcn8VVitBR-115" style="rounded=0;orthogonalLoop=1;jettySize=auto;html=1;exitX=0.5;exitY=0;exitDx=0;exitDy=0;entryX=0.5;entryY=1;entryDx=0;entryDy=0;endArrow=none;endFill=0;shape=link;" parent="1" source="LFgC7dUqhhn3A7_hZchA-34" target="LFgC7dUqhhn3A7_hZchA-35" edge="1">
          <mxGeometry relative="1" as="geometry">
            <mxPoint x="-180.94" y="760.75" as="sourcePoint" />
            <mxPoint x="-180.94" y="550.75" as="targetPoint" />
          </mxGeometry>
        </mxCell>
        <mxCell id="XRhQmhR6qjBcn8VVitBR-119" style="rounded=0;orthogonalLoop=1;jettySize=auto;html=1;exitX=0.869;exitY=1.004;exitDx=0;exitDy=0;entryX=0.5;entryY=0;entryDx=0;entryDy=0;endArrow=none;endFill=0;exitPerimeter=0;" parent="1" source="LFgC7dUqhhn3A7_hZchA-34" target="LFgC7dUqhhn3A7_hZchA-16" edge="1">
          <mxGeometry relative="1" as="geometry">
            <mxPoint x="-332.19" y="729.74" as="sourcePoint" />
            <mxPoint x="-392.19" y="679.74" as="targetPoint" />
          </mxGeometry>
        </mxCell>
        <mxCell id="XRhQmhR6qjBcn8VVitBR-121" style="rounded=0;orthogonalLoop=1;jettySize=auto;html=1;exitX=0.5;exitY=1;exitDx=0;exitDy=0;entryX=0.5;entryY=0;entryDx=0;entryDy=0;endArrow=none;endFill=0;" parent="1" source="LFgC7dUqhhn3A7_hZchA-34" target="XRhQmhR6qjBcn8VVitBR-120" edge="1">
          <mxGeometry relative="1" as="geometry">
            <mxPoint x="-332.19" y="759.74" as="sourcePoint" />
          </mxGeometry>
        </mxCell>
        <mxCell id="XRhQmhR6qjBcn8VVitBR-123" style="rounded=0;orthogonalLoop=1;jettySize=auto;html=1;exitX=0.147;exitY=1.007;exitDx=0;exitDy=0;entryX=0.5;entryY=0;entryDx=0;entryDy=0;endArrow=none;endFill=0;exitPerimeter=0;dashed=1;" parent="1" source="LFgC7dUqhhn3A7_hZchA-34" target="XRhQmhR6qjBcn8VVitBR-122" edge="1">
          <mxGeometry relative="1" as="geometry">
            <mxPoint x="-332.19" y="749.74" as="sourcePoint" />
          </mxGeometry>
        </mxCell>
        <mxCell id="XRhQmhR6qjBcn8VVitBR-125" style="rounded=0;orthogonalLoop=1;jettySize=auto;html=1;exitX=0.688;exitY=0.959;exitDx=0;exitDy=0;entryX=0.5;entryY=0;entryDx=0;entryDy=0;endArrow=none;endFill=0;exitPerimeter=0;" parent="1" source="LFgC7dUqhhn3A7_hZchA-34" target="XRhQmhR6qjBcn8VVitBR-124" edge="1">
          <mxGeometry relative="1" as="geometry">
            <mxPoint x="-332.19" y="739.74" as="sourcePoint" />
          </mxGeometry>
        </mxCell>
        <mxCell id="XRhQmhR6qjBcn8VVitBR-220" style="rounded=0;orthogonalLoop=1;jettySize=auto;html=1;entryX=1;entryY=0.5;entryDx=0;entryDy=0;endArrow=none;endFill=0;exitX=0;exitY=0.75;exitDx=0;exitDy=0;" parent="1" source="uz5s3VPcYe5UYgjy9mx2-26" target="XRhQmhR6qjBcn8VVitBR-219" edge="1">
          <mxGeometry relative="1" as="geometry">
            <mxPoint x="755.06" y="1220.58" as="sourcePoint" />
          </mxGeometry>
        </mxCell>
        <mxCell id="XRhQmhR6qjBcn8VVitBR-80" style="rounded=0;orthogonalLoop=1;jettySize=auto;html=1;exitX=0;exitY=0.25;exitDx=0;exitDy=0;entryX=1;entryY=1;entryDx=0;entryDy=0;endArrow=none;endFill=0;" parent="1" source="XRhQmhR6qjBcn8VVitBR-56" target="XRhQmhR6qjBcn8VVitBR-77" edge="1">
          <mxGeometry relative="1" as="geometry" />
        </mxCell>
        <mxCell id="XRhQmhR6qjBcn8VVitBR-84" style="rounded=0;orthogonalLoop=1;jettySize=auto;html=1;exitX=0;exitY=0.75;exitDx=0;exitDy=0;entryX=1;entryY=0;entryDx=0;entryDy=0;endArrow=none;endFill=0;" parent="1" source="XRhQmhR6qjBcn8VVitBR-56" target="XRhQmhR6qjBcn8VVitBR-83" edge="1">
          <mxGeometry relative="1" as="geometry" />
        </mxCell>
        <mxCell id="XRhQmhR6qjBcn8VVitBR-96" style="rounded=0;orthogonalLoop=1;jettySize=auto;html=1;exitX=0.25;exitY=1;exitDx=0;exitDy=0;endArrow=none;endFill=0;entryX=0.5;entryY=0;entryDx=0;entryDy=0;" parent="1" source="XRhQmhR6qjBcn8VVitBR-56" target="LFgC7dUqhhn3A7_hZchA-32" edge="1">
          <mxGeometry relative="1" as="geometry">
            <mxPoint x="-107.75" y="917.09" as="targetPoint" />
          </mxGeometry>
        </mxCell>
        <mxCell id="uz5s3VPcYe5UYgjy9mx2-350" style="edgeStyle=orthogonalEdgeStyle;rounded=0;orthogonalLoop=1;jettySize=auto;html=1;exitX=0.75;exitY=0;exitDx=0;exitDy=0;entryX=0;entryY=0.5;entryDx=0;entryDy=0;endArrow=none;endFill=0;" parent="1" source="XRhQmhR6qjBcn8VVitBR-56" target="uz5s3VPcYe5UYgjy9mx2-348" edge="1">
          <mxGeometry relative="1" as="geometry" />
        </mxCell>
        <mxCell id="XRhQmhR6qjBcn8VVitBR-56" value="Submission" style="rounded=0;whiteSpace=wrap;html=1;" parent="1" vertex="1">
          <mxGeometry x="-134.75" y="787.8200000000002" width="120" height="40" as="geometry" />
        </mxCell>
        <mxCell id="XRhQmhR6qjBcn8VVitBR-67" style="rounded=0;orthogonalLoop=1;jettySize=auto;html=1;exitX=1;exitY=0.5;exitDx=0;exitDy=0;entryX=0;entryY=0.25;entryDx=0;entryDy=0;endArrow=none;endFill=0;" parent="1" source="LFgC7dUqhhn3A7_hZchA-39" target="uz5s3VPcYe5UYgjy9mx2-26" edge="1">
          <mxGeometry relative="1" as="geometry">
            <mxPoint x="595.06" y="1160.5800000000004" as="sourcePoint" />
            <mxPoint x="655.06" y="1160.58" as="targetPoint" />
          </mxGeometry>
        </mxCell>
        <mxCell id="XRhQmhR6qjBcn8VVitBR-63" value="1" style="text;html=1;align=center;verticalAlign=middle;whiteSpace=wrap;rounded=0;" parent="1" vertex="1">
          <mxGeometry x="552.8699999999999" y="988.0499999999998" width="10" height="10.17" as="geometry" />
        </mxCell>
        <mxCell id="XRhQmhR6qjBcn8VVitBR-66" value="N" style="text;html=1;align=center;verticalAlign=middle;whiteSpace=wrap;rounded=0;" parent="1" vertex="1">
          <mxGeometry x="761.3299999999999" y="1013.2900000000001" width="7.96" height="10" as="geometry" />
        </mxCell>
        <mxCell id="XRhQmhR6qjBcn8VVitBR-68" value="&lt;u&gt;Id&lt;/u&gt;" style="ellipse;whiteSpace=wrap;html=1;" parent="1" vertex="1">
          <mxGeometry x="434.87" y="904.39" width="49" height="22.83" as="geometry" />
        </mxCell>
        <mxCell id="XRhQmhR6qjBcn8VVitBR-74" value="Date" style="ellipse;whiteSpace=wrap;html=1;" parent="1" vertex="1">
          <mxGeometry x="361" y="894.47" width="70" height="29.83" as="geometry" />
        </mxCell>
        <mxCell id="XRhQmhR6qjBcn8VVitBR-77" value="SubmissionDate" style="ellipse;whiteSpace=wrap;html=1;" parent="1" vertex="1">
          <mxGeometry x="-273.75" y="767.75" width="100" height="40" as="geometry" />
        </mxCell>
        <mxCell id="XRhQmhR6qjBcn8VVitBR-83" value="&lt;u&gt;Id&lt;/u&gt;" style="ellipse;whiteSpace=wrap;html=1;" parent="1" vertex="1">
          <mxGeometry x="-223.75" y="818.25" width="70" height="30" as="geometry" />
        </mxCell>
        <mxCell id="XRhQmhR6qjBcn8VVitBR-86" style="edgeStyle=orthogonalEdgeStyle;rounded=0;orthogonalLoop=1;jettySize=auto;html=1;exitX=0;exitY=0.5;exitDx=0;exitDy=0;endArrow=none;endFill=0;shape=link;entryX=0.75;entryY=1;entryDx=0;entryDy=0;" parent="1" source="XRhQmhR6qjBcn8VVitBR-85" target="XRhQmhR6qjBcn8VVitBR-56" edge="1">
          <mxGeometry relative="1" as="geometry">
            <mxPoint x="315.05999999999995" y="1035.26" as="sourcePoint" />
            <Array as="points">
              <mxPoint x="-45" y="993" />
            </Array>
          </mxGeometry>
        </mxCell>
        <mxCell id="XRhQmhR6qjBcn8VVitBR-87" style="edgeStyle=orthogonalEdgeStyle;rounded=0;orthogonalLoop=1;jettySize=auto;html=1;exitX=1;exitY=0.5;exitDx=0;exitDy=0;entryX=0;entryY=0.5;entryDx=0;entryDy=0;endArrow=none;endFill=0;" parent="1" source="XRhQmhR6qjBcn8VVitBR-85" target="XRhQmhR6qjBcn8VVitBR-51" edge="1">
          <mxGeometry relative="1" as="geometry" />
        </mxCell>
        <mxCell id="XRhQmhR6qjBcn8VVitBR-85" value="refers" style="rhombus;whiteSpace=wrap;html=1;" parent="1" vertex="1">
          <mxGeometry x="115" y="963.13" width="70" height="60" as="geometry" />
        </mxCell>
        <mxCell id="XRhQmhR6qjBcn8VVitBR-88" value="1" style="text;html=1;align=center;verticalAlign=middle;whiteSpace=wrap;rounded=0;" parent="1" vertex="1">
          <mxGeometry x="416.37" y="973.63" width="11" height="17.75" as="geometry" />
        </mxCell>
        <mxCell id="XRhQmhR6qjBcn8VVitBR-91" style="edgeStyle=orthogonalEdgeStyle;rounded=0;orthogonalLoop=1;jettySize=auto;html=1;exitX=0.5;exitY=1;exitDx=0;exitDy=0;entryX=0.5;entryY=0;entryDx=0;entryDy=0;endArrow=none;endFill=0;shape=link;" parent="1" source="XRhQmhR6qjBcn8VVitBR-90" target="XRhQmhR6qjBcn8VVitBR-56" edge="1">
          <mxGeometry relative="1" as="geometry">
            <mxPoint x="115.06" y="690" as="sourcePoint" />
          </mxGeometry>
        </mxCell>
        <mxCell id="XRhQmhR6qjBcn8VVitBR-90" value="by" style="rhombus;whiteSpace=wrap;html=1;" parent="1" vertex="1">
          <mxGeometry x="-110" y="410.07" width="70" height="60" as="geometry" />
        </mxCell>
        <mxCell id="XRhQmhR6qjBcn8VVitBR-94" value="N" style="text;html=1;align=center;verticalAlign=middle;whiteSpace=wrap;rounded=0;" parent="1" vertex="1">
          <mxGeometry x="-59.25" y="835.95" width="9" height="10" as="geometry" />
        </mxCell>
        <mxCell id="XRhQmhR6qjBcn8VVitBR-97" style="rounded=0;orthogonalLoop=1;jettySize=auto;html=1;exitX=0.5;exitY=1;exitDx=0;exitDy=0;entryX=0.5;entryY=0;entryDx=0;entryDy=0;endArrow=none;endFill=0;shape=link;edgeStyle=orthogonalEdgeStyle;" parent="1" source="LFgC7dUqhhn3A7_hZchA-32" target="LFgC7dUqhhn3A7_hZchA-33" edge="1">
          <mxGeometry relative="1" as="geometry">
            <mxPoint x="124.47" y="1082.31" as="sourcePoint" />
            <mxPoint x="117.75" y="1255.5399999999997" as="targetPoint" />
            <Array as="points">
              <mxPoint x="-105" y="1060" />
              <mxPoint x="125" y="1060" />
            </Array>
          </mxGeometry>
        </mxCell>
        <mxCell id="XRhQmhR6qjBcn8VVitBR-98" value="1" style="text;html=1;align=center;verticalAlign=middle;whiteSpace=wrap;rounded=0;" parent="1" vertex="1">
          <mxGeometry x="-119.75" y="830.82" width="10" height="20.25" as="geometry" />
        </mxCell>
        <mxCell id="XRhQmhR6qjBcn8VVitBR-99" value="N" style="text;html=1;align=center;verticalAlign=middle;whiteSpace=wrap;rounded=0;" parent="1" vertex="1">
          <mxGeometry x="108" y="1119.3" width="10" height="10" as="geometry" />
        </mxCell>
        <mxCell id="XRhQmhR6qjBcn8VVitBR-100" value="&lt;u&gt;Id&lt;/u&gt;" style="ellipse;whiteSpace=wrap;html=1;" parent="1" vertex="1">
          <mxGeometry x="-21.00000000000003" y="1112.82" width="65" height="30" as="geometry" />
        </mxCell>
        <mxCell id="XRhQmhR6qjBcn8VVitBR-117" value="N" style="text;html=1;align=center;verticalAlign=middle;whiteSpace=wrap;rounded=0;" parent="1" vertex="1">
          <mxGeometry x="305.06" y="773.9000000000001" width="10" height="10.17" as="geometry" />
        </mxCell>
        <mxCell id="XRhQmhR6qjBcn8VVitBR-120" value="Status" style="ellipse;whiteSpace=wrap;html=1;" parent="1" vertex="1">
          <mxGeometry x="243.81" y="857.2" width="52.5" height="24" as="geometry" />
        </mxCell>
        <mxCell id="XRhQmhR6qjBcn8VVitBR-122" value="FinalNote" style="ellipse;whiteSpace=wrap;html=1;" parent="1" vertex="1">
          <mxGeometry x="180.81" y="867.07" width="65.25" height="24" as="geometry" />
        </mxCell>
        <mxCell id="XRhQmhR6qjBcn8VVitBR-124" value="ReviewDate" style="ellipse;whiteSpace=wrap;html=1;" parent="1" vertex="1">
          <mxGeometry x="297.56" y="871.19" width="82.5" height="30" as="geometry" />
        </mxCell>
        <mxCell id="XRhQmhR6qjBcn8VVitBR-134" value="NoteText" style="ellipse;whiteSpace=wrap;html=1;" parent="1" vertex="1">
          <mxGeometry x="-35.28000000000003" y="1150.1499999999999" width="70" height="30" as="geometry" />
        </mxCell>
        <mxCell id="XRhQmhR6qjBcn8VVitBR-138" style="edgeStyle=orthogonalEdgeStyle;rounded=0;orthogonalLoop=1;jettySize=auto;html=1;exitX=0.5;exitY=0;exitDx=0;exitDy=0;entryX=0.25;entryY=1;entryDx=0;entryDy=0;endArrow=none;endFill=0;" parent="1" source="XRhQmhR6qjBcn8VVitBR-136" target="XRhQmhR6qjBcn8VVitBR-51" edge="1">
          <mxGeometry relative="1" as="geometry" />
        </mxCell>
        <mxCell id="XRhQmhR6qjBcn8VVitBR-139" style="edgeStyle=orthogonalEdgeStyle;rounded=0;orthogonalLoop=1;jettySize=auto;html=1;exitX=0.5;exitY=1;exitDx=0;exitDy=0;entryX=0.5;entryY=0;entryDx=0;entryDy=0;endArrow=none;endFill=0;shape=link;" parent="1" source="XRhQmhR6qjBcn8VVitBR-136" target="XRhQmhR6qjBcn8VVitBR-137" edge="1">
          <mxGeometry relative="1" as="geometry" />
        </mxCell>
        <mxCell id="XRhQmhR6qjBcn8VVitBR-136" value="has" style="rhombus;whiteSpace=wrap;html=1;" parent="1" vertex="1">
          <mxGeometry x="406.06" y="1074.55" width="70" height="60" as="geometry" />
        </mxCell>
        <mxCell id="XRhQmhR6qjBcn8VVitBR-150" style="rounded=0;orthogonalLoop=1;jettySize=auto;html=1;exitX=0.5;exitY=1;exitDx=0;exitDy=0;entryX=0.5;entryY=0;entryDx=0;entryDy=0;endArrow=none;endFill=0;" parent="1" source="XRhQmhR6qjBcn8VVitBR-137" target="XRhQmhR6qjBcn8VVitBR-149" edge="1">
          <mxGeometry relative="1" as="geometry" />
        </mxCell>
        <mxCell id="XRhQmhR6qjBcn8VVitBR-163" style="rounded=0;orthogonalLoop=1;jettySize=auto;html=1;exitX=0.25;exitY=0;exitDx=0;exitDy=0;entryX=0.5;entryY=1;entryDx=0;entryDy=0;endArrow=none;endFill=0;" parent="1" source="XRhQmhR6qjBcn8VVitBR-137" target="XRhQmhR6qjBcn8VVitBR-162" edge="1">
          <mxGeometry relative="1" as="geometry" />
        </mxCell>
        <mxCell id="XRhQmhR6qjBcn8VVitBR-137" value="QuestionGroup" style="rounded=0;whiteSpace=wrap;html=1;" parent="1" vertex="1">
          <mxGeometry x="381.06" y="1197.03" width="120" height="40" as="geometry" />
        </mxCell>
        <mxCell id="XRhQmhR6qjBcn8VVitBR-140" value="1" style="text;html=1;align=center;verticalAlign=middle;whiteSpace=wrap;rounded=0;" parent="1" vertex="1">
          <mxGeometry x="451.56" y="1016.9900000000001" width="7.5" height="9.83" as="geometry" />
        </mxCell>
        <mxCell id="XRhQmhR6qjBcn8VVitBR-141" value="N" style="text;html=1;align=center;verticalAlign=middle;whiteSpace=wrap;rounded=0;" parent="1" vertex="1">
          <mxGeometry x="423.06" y="1177.03" width="15" height="20" as="geometry" />
        </mxCell>
        <mxCell id="XRhQmhR6qjBcn8VVitBR-166" style="rounded=0;orthogonalLoop=1;jettySize=auto;html=1;exitX=0.895;exitY=1.004;exitDx=0;exitDy=0;entryX=0.5;entryY=0;entryDx=0;entryDy=0;endArrow=none;endFill=0;exitPerimeter=0;" parent="1" source="XRhQmhR6qjBcn8VVitBR-148" target="XRhQmhR6qjBcn8VVitBR-165" edge="1">
          <mxGeometry relative="1" as="geometry" />
        </mxCell>
        <mxCell id="XRhQmhR6qjBcn8VVitBR-168" style="rounded=0;orthogonalLoop=1;jettySize=auto;html=1;exitX=0.667;exitY=0.997;exitDx=0;exitDy=0;entryX=0.5;entryY=0;entryDx=0;entryDy=0;endArrow=none;endFill=0;exitPerimeter=0;" parent="1" source="XRhQmhR6qjBcn8VVitBR-148" target="XRhQmhR6qjBcn8VVitBR-167" edge="1">
          <mxGeometry relative="1" as="geometry" />
        </mxCell>
        <mxCell id="XRhQmhR6qjBcn8VVitBR-170" style="rounded=0;orthogonalLoop=1;jettySize=auto;html=1;exitX=0.37;exitY=0.997;exitDx=0;exitDy=0;endArrow=none;endFill=0;exitPerimeter=0;" parent="1" source="XRhQmhR6qjBcn8VVitBR-148" target="XRhQmhR6qjBcn8VVitBR-169" edge="1">
          <mxGeometry relative="1" as="geometry" />
        </mxCell>
        <mxCell id="XRhQmhR6qjBcn8VVitBR-172" style="rounded=0;orthogonalLoop=1;jettySize=auto;html=1;exitX=0.162;exitY=0.985;exitDx=0;exitDy=0;entryX=0.5;entryY=0;entryDx=0;entryDy=0;endArrow=none;endFill=0;exitPerimeter=0;" parent="1" source="XRhQmhR6qjBcn8VVitBR-148" target="XRhQmhR6qjBcn8VVitBR-171" edge="1">
          <mxGeometry relative="1" as="geometry" />
        </mxCell>
        <mxCell id="Yb0VxK4vsEoRjDZreyK2-12" style="edgeStyle=orthogonalEdgeStyle;rounded=0;orthogonalLoop=1;jettySize=auto;html=1;exitX=0;exitY=0.5;exitDx=0;exitDy=0;entryX=0.5;entryY=1;entryDx=0;entryDy=0;endArrow=none;endFill=0;" parent="1" source="XRhQmhR6qjBcn8VVitBR-148" target="XRhQmhR6qjBcn8VVitBR-154" edge="1">
          <mxGeometry relative="1" as="geometry" />
        </mxCell>
        <mxCell id="XRhQmhR6qjBcn8VVitBR-148" value="Question" style="rounded=0;whiteSpace=wrap;html=1;" parent="1" vertex="1">
          <mxGeometry x="381.06" y="1331.3799999999999" width="120" height="40" as="geometry" />
        </mxCell>
        <mxCell id="XRhQmhR6qjBcn8VVitBR-151" style="rounded=0;orthogonalLoop=1;jettySize=auto;html=1;exitX=0.5;exitY=1;exitDx=0;exitDy=0;entryX=0.5;entryY=0;entryDx=0;entryDy=0;endArrow=none;endFill=0;shape=link;" parent="1" source="XRhQmhR6qjBcn8VVitBR-149" target="XRhQmhR6qjBcn8VVitBR-148" edge="1">
          <mxGeometry relative="1" as="geometry">
            <mxPoint x="553.3999999999999" y="1370.58" as="sourcePoint" />
          </mxGeometry>
        </mxCell>
        <mxCell id="XRhQmhR6qjBcn8VVitBR-149" value="has" style="rhombus;whiteSpace=wrap;html=1;" parent="1" vertex="1">
          <mxGeometry x="406" y="1252.35" width="70" height="60" as="geometry" />
        </mxCell>
        <mxCell id="XRhQmhR6qjBcn8VVitBR-152" value="1" style="text;html=1;align=center;verticalAlign=middle;whiteSpace=wrap;rounded=0;" parent="1" vertex="1">
          <mxGeometry x="425.06" y="1237.03" width="15" height="15.55" as="geometry" />
        </mxCell>
        <mxCell id="XRhQmhR6qjBcn8VVitBR-153" value="N" style="text;html=1;align=center;verticalAlign=middle;whiteSpace=wrap;rounded=0;" parent="1" vertex="1">
          <mxGeometry x="423.05999999999995" y="1316.9599999999998" width="15" height="14.42" as="geometry" />
        </mxCell>
        <mxCell id="XRhQmhR6qjBcn8VVitBR-154" value="refers" style="rhombus;whiteSpace=wrap;html=1;" parent="1" vertex="1">
          <mxGeometry x="286.56" y="1249.52" width="70" height="60" as="geometry" />
        </mxCell>
        <mxCell id="XRhQmhR6qjBcn8VVitBR-160" value="N" style="text;html=1;align=center;verticalAlign=middle;whiteSpace=wrap;rounded=0;" parent="1" vertex="1">
          <mxGeometry x="188" y="1137.9699999999998" width="10" height="11" as="geometry" />
        </mxCell>
        <mxCell id="XRhQmhR6qjBcn8VVitBR-161" value="1" style="text;html=1;align=center;verticalAlign=middle;whiteSpace=wrap;rounded=0;" parent="1" vertex="1">
          <mxGeometry x="370.06" y="1335.4799999999998" width="10" height="16.25" as="geometry" />
        </mxCell>
        <mxCell id="XRhQmhR6qjBcn8VVitBR-162" value="&lt;u&gt;Id&lt;/u&gt;" style="ellipse;whiteSpace=wrap;html=1;" parent="1" vertex="1">
          <mxGeometry x="386.56" y="1137.97" width="38.5" height="20" as="geometry" />
        </mxCell>
        <mxCell id="XRhQmhR6qjBcn8VVitBR-165" value="&lt;u&gt;Id&lt;/u&gt;" style="ellipse;whiteSpace=wrap;html=1;" parent="1" vertex="1">
          <mxGeometry x="489.37" y="1405.4399999999996" width="40" height="18.75" as="geometry" />
        </mxCell>
        <mxCell id="XRhQmhR6qjBcn8VVitBR-167" value="Text" style="ellipse;whiteSpace=wrap;html=1;" parent="1" vertex="1">
          <mxGeometry x="451.56" y="1402.9399999999996" width="35" height="23.75" as="geometry" />
        </mxCell>
        <mxCell id="XRhQmhR6qjBcn8VVitBR-169" value="Type" style="ellipse;whiteSpace=wrap;html=1;" parent="1" vertex="1">
          <mxGeometry x="406.06" y="1395.4399999999998" width="41" height="28.75" as="geometry" />
        </mxCell>
        <mxCell id="XRhQmhR6qjBcn8VVitBR-171" value="Options" style="ellipse;whiteSpace=wrap;html=1;" parent="1" vertex="1">
          <mxGeometry x="350.06" y="1388.57" width="50" height="35.62" as="geometry" />
        </mxCell>
        <mxCell id="XRhQmhR6qjBcn8VVitBR-221" style="rounded=0;orthogonalLoop=1;jettySize=auto;html=1;exitX=0.5;exitY=1;exitDx=0;exitDy=0;entryX=0.5;entryY=0;entryDx=0;entryDy=0;endArrow=none;endFill=0;" parent="1" source="XRhQmhR6qjBcn8VVitBR-219" target="XRhQmhR6qjBcn8VVitBR-52" edge="1">
          <mxGeometry relative="1" as="geometry" />
        </mxCell>
        <mxCell id="XRhQmhR6qjBcn8VVitBR-219" value="has" style="rhombus;whiteSpace=wrap;html=1;" parent="1" vertex="1">
          <mxGeometry x="612.8699999999999" y="1036.1499999999999" width="70" height="60" as="geometry" />
        </mxCell>
        <mxCell id="XRhQmhR6qjBcn8VVitBR-222" value="&lt;u&gt;Id&lt;/u&gt;" style="ellipse;whiteSpace=wrap;html=1;" parent="1" vertex="1">
          <mxGeometry x="507.3699999999999" y="1168.9999999999998" width="37.5" height="20" as="geometry" />
        </mxCell>
        <mxCell id="qG21ETKVTnbyGbOeK0wt-38" style="rounded=0;orthogonalLoop=1;jettySize=auto;html=1;exitX=0.5;exitY=1;exitDx=0;exitDy=0;entryX=0.5;entryY=0;entryDx=0;entryDy=0;endArrow=none;endFill=0;" parent="1" source="qG21ETKVTnbyGbOeK0wt-37" target="XRhQmhR6qjBcn8VVitBR-50" edge="1">
          <mxGeometry relative="1" as="geometry" />
        </mxCell>
        <mxCell id="qG21ETKVTnbyGbOeK0wt-37" value="&lt;u&gt;Name&lt;/u&gt;" style="ellipse;whiteSpace=wrap;html=1;" parent="1" vertex="1">
          <mxGeometry x="-233.75" y="70" width="67.5" height="35" as="geometry" />
        </mxCell>
        <mxCell id="LFgC7dUqhhn3A7_hZchA-12" style="rounded=0;orthogonalLoop=1;jettySize=auto;html=1;exitX=0.962;exitY=0.319;exitDx=0;exitDy=0;entryX=0;entryY=0.75;entryDx=0;entryDy=0;endArrow=none;endFill=0;exitPerimeter=0;" parent="1" source="LFgC7dUqhhn3A7_hZchA-11" target="XRhQmhR6qjBcn8VVitBR-51" edge="1">
          <mxGeometry relative="1" as="geometry" />
        </mxCell>
        <mxCell id="LFgC7dUqhhn3A7_hZchA-11" value="Language" style="ellipse;whiteSpace=wrap;html=1;" parent="1" vertex="1">
          <mxGeometry x="337.37" y="1011.81" width="60.19" height="32.62" as="geometry" />
        </mxCell>
        <mxCell id="LFgC7dUqhhn3A7_hZchA-16" value="Id" style="ellipse;whiteSpace=wrap;html=1;align=center;fontStyle=4" parent="1" vertex="1">
          <mxGeometry x="368.87" y="849.07" width="38" height="24" as="geometry" />
        </mxCell>
        <mxCell id="LFgC7dUqhhn3A7_hZchA-22" style="rounded=0;orthogonalLoop=1;jettySize=auto;html=1;exitX=0;exitY=0.75;exitDx=0;exitDy=0;entryX=1;entryY=0.5;entryDx=0;entryDy=0;endArrow=none;endFill=0;dashed=1;" parent="1" source="LFgC7dUqhhn3A7_hZchA-33" target="XRhQmhR6qjBcn8VVitBR-134" edge="1">
          <mxGeometry relative="1" as="geometry">
            <mxPoint x="58" y="1176.6299999999999" as="sourcePoint" />
          </mxGeometry>
        </mxCell>
        <mxCell id="LFgC7dUqhhn3A7_hZchA-24" value="NoteText only exists if a Review exists for that Submission" style="shape=note;size=20;whiteSpace=wrap;html=1;" parent="1" vertex="1">
          <mxGeometry x="-155.53" y="1094.1199999999997" width="110" height="85.75" as="geometry" />
        </mxCell>
        <mxCell id="LFgC7dUqhhn3A7_hZchA-32" value="has" style="rhombus;whiteSpace=wrap;html=1;" parent="1" vertex="1">
          <mxGeometry x="-140" y="955.26" width="70" height="60" as="geometry" />
        </mxCell>
        <mxCell id="uz5s3VPcYe5UYgjy9mx2-3" style="edgeStyle=orthogonalEdgeStyle;rounded=0;orthogonalLoop=1;jettySize=auto;html=1;exitX=0.5;exitY=1;exitDx=0;exitDy=0;entryX=0.5;entryY=0;entryDx=0;entryDy=0;endArrow=none;endFill=0;shape=link;" parent="1" source="LFgC7dUqhhn3A7_hZchA-33" target="uz5s3VPcYe5UYgjy9mx2-2" edge="1">
          <mxGeometry relative="1" as="geometry">
            <mxPoint x="117.99999999999994" y="1206.6299999999999" as="targetPoint" />
          </mxGeometry>
        </mxCell>
        <mxCell id="LFgC7dUqhhn3A7_hZchA-33" value="AnsweredQuestion" style="rounded=0;whiteSpace=wrap;html=1;" parent="1" vertex="1">
          <mxGeometry x="64.47" y="1134.55" width="120" height="40" as="geometry" />
        </mxCell>
        <mxCell id="uz5s3VPcYe5UYgjy9mx2-248" style="edgeStyle=orthogonalEdgeStyle;rounded=0;orthogonalLoop=1;jettySize=auto;html=1;exitX=0;exitY=0.5;exitDx=0;exitDy=0;entryX=1;entryY=0.5;entryDx=0;entryDy=0;endArrow=none;endFill=0;" parent="1" source="LFgC7dUqhhn3A7_hZchA-34" target="uz5s3VPcYe5UYgjy9mx2-247" edge="1">
          <mxGeometry relative="1" as="geometry" />
        </mxCell>
        <mxCell id="LFgC7dUqhhn3A7_hZchA-34" value="Review" style="rounded=0;whiteSpace=wrap;html=1;" parent="1" vertex="1">
          <mxGeometry x="259.31" y="787.24" width="120" height="40" as="geometry" />
        </mxCell>
        <mxCell id="LFgC7dUqhhn3A7_hZchA-35" value="by" style="rhombus;whiteSpace=wrap;html=1;" parent="1" vertex="1">
          <mxGeometry x="286.56" y="511" width="70" height="60" as="geometry" />
        </mxCell>
        <mxCell id="LFgC7dUqhhn3A7_hZchA-39" value="has" style="rhombus;whiteSpace=wrap;html=1;" parent="1" vertex="1">
          <mxGeometry x="612.8699999999999" y="973.6299999999999" width="70" height="60" as="geometry" />
        </mxCell>
        <mxCell id="LFgC7dUqhhn3A7_hZchA-71" value="N" style="text;html=1;align=center;verticalAlign=middle;whiteSpace=wrap;rounded=0;" parent="1" vertex="1">
          <mxGeometry x="761.3299999999999" y="990.4600000000002" width="10" height="12.5" as="geometry" />
        </mxCell>
        <mxCell id="LFgC7dUqhhn3A7_hZchA-77" value="" style="endArrow=none;html=1;rounded=0;curved=1;" parent="1" edge="1">
          <mxGeometry width="50" height="50" relative="1" as="geometry">
            <mxPoint x="761.9999999999999" y="1046.7499999999998" as="sourcePoint" />
            <mxPoint x="761.9999999999999" y="986.8900000000002" as="targetPoint" />
            <Array as="points">
              <mxPoint x="731.9999999999999" y="1006.8900000000002" />
            </Array>
          </mxGeometry>
        </mxCell>
        <mxCell id="LFgC7dUqhhn3A7_hZchA-104" value="Token" style="ellipse;whiteSpace=wrap;html=1;" parent="1" vertex="1">
          <mxGeometry x="512.3700000000001" y="56.75" width="70" height="35" as="geometry" />
        </mxCell>
        <mxCell id="LFgC7dUqhhn3A7_hZchA-106" value="isVerified" style="ellipse;whiteSpace=wrap;html=1;" parent="1" vertex="1">
          <mxGeometry x="128" y="344.57" width="70" height="35" as="geometry" />
        </mxCell>
        <mxCell id="mx9bK30Ubpo_IQFIx3bl-6" style="rounded=0;orthogonalLoop=1;jettySize=auto;html=1;exitX=0.5;exitY=1;exitDx=0;exitDy=0;entryX=0.5;entryY=0;entryDx=0;entryDy=0;endArrow=none;endFill=0;" parent="1" source="mx9bK30Ubpo_IQFIx3bl-1" target="mx9bK30Ubpo_IQFIx3bl-5" edge="1">
          <mxGeometry relative="1" as="geometry" />
        </mxCell>
        <mxCell id="mx9bK30Ubpo_IQFIx3bl-1" value="ManualEntry" style="rounded=0;whiteSpace=wrap;html=1;" parent="1" vertex="1">
          <mxGeometry x="-260" y="293.57" width="120" height="40" as="geometry" />
        </mxCell>
        <mxCell id="mx9bK30Ubpo_IQFIx3bl-4" style="rounded=0;orthogonalLoop=1;jettySize=auto;html=1;exitX=0.64;exitY=0.966;exitDx=0;exitDy=0;entryX=0;entryY=0;entryDx=0;entryDy=0;endArrow=none;endFill=0;exitPerimeter=0;" parent="1" source="mx9bK30Ubpo_IQFIx3bl-2" target="mx9bK30Ubpo_IQFIx3bl-1" edge="1">
          <mxGeometry relative="1" as="geometry" />
        </mxCell>
        <mxCell id="mx9bK30Ubpo_IQFIx3bl-2" value="&lt;u&gt;Name&lt;/u&gt;" style="ellipse;whiteSpace=wrap;html=1;" parent="1" vertex="1">
          <mxGeometry x="-322" y="233.57" width="80" height="40" as="geometry" />
        </mxCell>
        <mxCell id="mx9bK30Ubpo_IQFIx3bl-3" value="&lt;u&gt;Id&lt;/u&gt;" style="ellipse;whiteSpace=wrap;html=1;" parent="1" vertex="1">
          <mxGeometry x="-340" y="430.07" width="80" height="40" as="geometry" />
        </mxCell>
        <mxCell id="mx9bK30Ubpo_IQFIx3bl-8" style="rounded=0;orthogonalLoop=1;jettySize=auto;html=1;exitX=0.5;exitY=1;exitDx=0;exitDy=0;entryX=0.5;entryY=0;entryDx=0;entryDy=0;endArrow=none;endFill=0;shape=link;" parent="1" source="mx9bK30Ubpo_IQFIx3bl-5" target="mx9bK30Ubpo_IQFIx3bl-7" edge="1">
          <mxGeometry relative="1" as="geometry" />
        </mxCell>
        <mxCell id="mx9bK30Ubpo_IQFIx3bl-5" value="has" style="rhombus;whiteSpace=wrap;html=1;" parent="1" vertex="1">
          <mxGeometry x="-235" y="372.57" width="70" height="60" as="geometry" />
        </mxCell>
        <mxCell id="mx9bK30Ubpo_IQFIx3bl-16" style="rounded=0;orthogonalLoop=1;jettySize=auto;html=1;exitX=0;exitY=0;exitDx=0;exitDy=0;entryX=0.5;entryY=1;entryDx=0;entryDy=0;endArrow=none;endFill=0;" parent="1" source="mx9bK30Ubpo_IQFIx3bl-7" target="mx9bK30Ubpo_IQFIx3bl-3" edge="1">
          <mxGeometry relative="1" as="geometry" />
        </mxCell>
        <mxCell id="mx9bK30Ubpo_IQFIx3bl-19" style="rounded=0;orthogonalLoop=1;jettySize=auto;html=1;exitX=0;exitY=1;exitDx=0;exitDy=0;entryX=1;entryY=0.5;entryDx=0;entryDy=0;endArrow=none;endFill=0;" parent="1" source="mx9bK30Ubpo_IQFIx3bl-7" target="mx9bK30Ubpo_IQFIx3bl-18" edge="1">
          <mxGeometry relative="1" as="geometry" />
        </mxCell>
        <mxCell id="mx9bK30Ubpo_IQFIx3bl-21" style="rounded=0;orthogonalLoop=1;jettySize=auto;html=1;exitX=0.5;exitY=1;exitDx=0;exitDy=0;entryX=0.5;entryY=0;entryDx=0;entryDy=0;endArrow=none;endFill=0;" parent="1" source="mx9bK30Ubpo_IQFIx3bl-7" target="mx9bK30Ubpo_IQFIx3bl-20" edge="1">
          <mxGeometry relative="1" as="geometry" />
        </mxCell>
        <mxCell id="mx9bK30Ubpo_IQFIx3bl-7" value="EntryExamples" style="rounded=0;whiteSpace=wrap;html=1;" parent="1" vertex="1">
          <mxGeometry x="-260" y="483.57" width="120" height="36.88" as="geometry" />
        </mxCell>
        <mxCell id="mx9bK30Ubpo_IQFIx3bl-11" style="rounded=0;orthogonalLoop=1;jettySize=auto;html=1;exitX=0.5;exitY=1;exitDx=0;exitDy=0;entryX=0.5;entryY=0;entryDx=0;entryDy=0;endArrow=none;endFill=0;" parent="1" source="mx9bK30Ubpo_IQFIx3bl-9" target="mx9bK30Ubpo_IQFIx3bl-1" edge="1">
          <mxGeometry relative="1" as="geometry" />
        </mxCell>
        <mxCell id="mx9bK30Ubpo_IQFIx3bl-9" value="has" style="rhombus;whiteSpace=wrap;html=1;" parent="1" vertex="1">
          <mxGeometry x="-235" y="196.57" width="70" height="60" as="geometry" />
        </mxCell>
        <mxCell id="mx9bK30Ubpo_IQFIx3bl-12" value="N" style="text;html=1;align=center;verticalAlign=middle;whiteSpace=wrap;rounded=0;" parent="1" vertex="1">
          <mxGeometry x="-223.75" y="165.57" width="20" height="20" as="geometry" />
        </mxCell>
        <mxCell id="mx9bK30Ubpo_IQFIx3bl-13" value="1" style="text;html=1;align=center;verticalAlign=middle;whiteSpace=wrap;rounded=0;" parent="1" vertex="1">
          <mxGeometry x="-223.75" y="273.57" width="20" height="20" as="geometry" />
        </mxCell>
        <mxCell id="mx9bK30Ubpo_IQFIx3bl-14" value="1" style="text;html=1;align=center;verticalAlign=middle;whiteSpace=wrap;rounded=0;" parent="1" vertex="1">
          <mxGeometry x="-223.75" y="334.57" width="20" height="20" as="geometry" />
        </mxCell>
        <mxCell id="mx9bK30Ubpo_IQFIx3bl-15" value="N" style="text;html=1;align=center;verticalAlign=middle;whiteSpace=wrap;rounded=0;" parent="1" vertex="1">
          <mxGeometry x="-223.75" y="463.57" width="20" height="20" as="geometry" />
        </mxCell>
        <mxCell id="mx9bK30Ubpo_IQFIx3bl-25" style="rounded=0;orthogonalLoop=1;jettySize=auto;html=1;exitX=0;exitY=0;exitDx=0;exitDy=0;entryX=1;entryY=1;entryDx=0;entryDy=0;endArrow=none;endFill=0;" parent="1" source="mx9bK30Ubpo_IQFIx3bl-17" target="mx9bK30Ubpo_IQFIx3bl-24" edge="1">
          <mxGeometry relative="1" as="geometry" />
        </mxCell>
        <mxCell id="mx9bK30Ubpo_IQFIx3bl-26" style="rounded=0;orthogonalLoop=1;jettySize=auto;html=1;exitX=0;exitY=1;exitDx=0;exitDy=0;entryX=1;entryY=1;entryDx=0;entryDy=0;endArrow=none;endFill=0;" parent="1" source="mx9bK30Ubpo_IQFIx3bl-17" target="mx9bK30Ubpo_IQFIx3bl-23" edge="1">
          <mxGeometry relative="1" as="geometry" />
        </mxCell>
        <mxCell id="mx9bK30Ubpo_IQFIx3bl-17" value="Criteria" style="rounded=0;whiteSpace=wrap;html=1;" parent="1" vertex="1">
          <mxGeometry x="-260" y="661.32" width="120" height="40" as="geometry" />
        </mxCell>
        <mxCell id="mx9bK30Ubpo_IQFIx3bl-18" value="Text" style="ellipse;whiteSpace=wrap;html=1;" parent="1" vertex="1">
          <mxGeometry x="-362" y="476.07" width="80" height="40" as="geometry" />
        </mxCell>
        <mxCell id="mx9bK30Ubpo_IQFIx3bl-22" style="rounded=0;orthogonalLoop=1;jettySize=auto;html=1;exitX=0.5;exitY=1;exitDx=0;exitDy=0;entryX=0.5;entryY=0;entryDx=0;entryDy=0;endArrow=none;endFill=0;shape=link;" parent="1" source="mx9bK30Ubpo_IQFIx3bl-20" target="mx9bK30Ubpo_IQFIx3bl-17" edge="1">
          <mxGeometry relative="1" as="geometry" />
        </mxCell>
        <mxCell id="mx9bK30Ubpo_IQFIx3bl-20" value="has" style="rhombus;whiteSpace=wrap;html=1;" parent="1" vertex="1">
          <mxGeometry x="-235" y="563.57" width="70" height="60" as="geometry" />
        </mxCell>
        <mxCell id="mx9bK30Ubpo_IQFIx3bl-23" value="Text" style="ellipse;whiteSpace=wrap;html=1;" parent="1" vertex="1">
          <mxGeometry x="-349" y="652.82" width="80" height="40" as="geometry" />
        </mxCell>
        <mxCell id="mx9bK30Ubpo_IQFIx3bl-24" value="&lt;u&gt;Id&lt;/u&gt;" style="ellipse;whiteSpace=wrap;html=1;" parent="1" vertex="1">
          <mxGeometry x="-340" y="596.32" width="80" height="40" as="geometry" />
        </mxCell>
        <mxCell id="wM10pJGPDZzWH9A1E4Fj-3" value="DoB" style="ellipse;whiteSpace=wrap;html=1;" parent="1" vertex="1">
          <mxGeometry x="54.47000000000003" y="337.57" width="59" height="35" as="geometry" />
        </mxCell>
        <mxCell id="wM10pJGPDZzWH9A1E4Fj-4" value="PoB" style="ellipse;whiteSpace=wrap;html=1;" parent="1" vertex="1">
          <mxGeometry x="-8.499999999999996" y="354.57" width="52.5" height="35" as="geometry" />
        </mxCell>
        <mxCell id="wM10pJGPDZzWH9A1E4Fj-5" style="rounded=0;orthogonalLoop=1;jettySize=auto;html=1;exitX=0.5;exitY=1;exitDx=0;exitDy=0;entryX=0.25;entryY=0;entryDx=0;entryDy=0;endArrow=none;endFill=0;" parent="1" source="wM10pJGPDZzWH9A1E4Fj-3" target="uz5s3VPcYe5UYgjy9mx2-240" edge="1">
          <mxGeometry relative="1" as="geometry" />
        </mxCell>
        <mxCell id="wM10pJGPDZzWH9A1E4Fj-6" style="rounded=0;orthogonalLoop=1;jettySize=auto;html=1;exitX=1;exitY=1;exitDx=0;exitDy=0;entryX=0;entryY=0;entryDx=0;entryDy=0;endArrow=none;endFill=0;" parent="1" source="wM10pJGPDZzWH9A1E4Fj-4" target="uz5s3VPcYe5UYgjy9mx2-240" edge="1">
          <mxGeometry relative="1" as="geometry" />
        </mxCell>
        <mxCell id="ODht4TJ9SO5vpi4dF8H--33" style="edgeStyle=orthogonalEdgeStyle;rounded=0;orthogonalLoop=1;jettySize=auto;html=1;exitX=0;exitY=0.5;exitDx=0;exitDy=0;entryX=1;entryY=0.5;entryDx=0;entryDy=0;endArrow=none;endFill=0;" parent="1" source="uz5s3VPcYe5UYgjy9mx2-1" target="ODht4TJ9SO5vpi4dF8H--32" edge="1">
          <mxGeometry relative="1" as="geometry" />
        </mxCell>
        <mxCell id="uz5s3VPcYe5UYgjy9mx2-1" value="Answer" style="rounded=0;whiteSpace=wrap;html=1;" parent="1" vertex="1">
          <mxGeometry x="64.47" y="1291.3799999999999" width="120" height="40" as="geometry" />
        </mxCell>
        <mxCell id="uz5s3VPcYe5UYgjy9mx2-4" style="edgeStyle=orthogonalEdgeStyle;rounded=0;orthogonalLoop=1;jettySize=auto;html=1;exitX=0.5;exitY=1;exitDx=0;exitDy=0;entryX=0.5;entryY=0;entryDx=0;entryDy=0;endArrow=none;endFill=0;" parent="1" source="uz5s3VPcYe5UYgjy9mx2-2" target="uz5s3VPcYe5UYgjy9mx2-1" edge="1">
          <mxGeometry relative="1" as="geometry" />
        </mxCell>
        <mxCell id="uz5s3VPcYe5UYgjy9mx2-2" value="has" style="rhombus;whiteSpace=wrap;html=1;" parent="1" vertex="1">
          <mxGeometry x="89.47" y="1201.1299999999999" width="70" height="60" as="geometry" />
        </mxCell>
        <mxCell id="uz5s3VPcYe5UYgjy9mx2-10" style="edgeStyle=orthogonalEdgeStyle;rounded=0;orthogonalLoop=1;jettySize=auto;html=1;exitX=0.5;exitY=0;exitDx=0;exitDy=0;entryX=0.5;entryY=1;entryDx=0;entryDy=0;endArrow=none;endFill=0;shape=link;" parent="1" source="uz5s3VPcYe5UYgjy9mx2-5" target="uz5s3VPcYe5UYgjy9mx2-1" edge="1">
          <mxGeometry relative="1" as="geometry" />
        </mxCell>
        <mxCell id="uz5s3VPcYe5UYgjy9mx2-15" style="rounded=0;orthogonalLoop=1;jettySize=auto;html=1;exitX=0.5;exitY=1;exitDx=0;exitDy=0;entryX=0.5;entryY=0;entryDx=0;entryDy=0;endArrow=none;endFill=0;" parent="1" source="uz5s3VPcYe5UYgjy9mx2-5" target="uz5s3VPcYe5UYgjy9mx2-12" edge="1">
          <mxGeometry relative="1" as="geometry" />
        </mxCell>
        <mxCell id="uz5s3VPcYe5UYgjy9mx2-16" style="rounded=0;orthogonalLoop=1;jettySize=auto;html=1;exitX=0.5;exitY=1;exitDx=0;exitDy=0;entryX=0.5;entryY=0;entryDx=0;entryDy=0;endArrow=none;endFill=0;" parent="1" source="uz5s3VPcYe5UYgjy9mx2-5" target="uz5s3VPcYe5UYgjy9mx2-11" edge="1">
          <mxGeometry relative="1" as="geometry" />
        </mxCell>
        <mxCell id="uz5s3VPcYe5UYgjy9mx2-17" style="rounded=0;orthogonalLoop=1;jettySize=auto;html=1;exitX=0.5;exitY=1;exitDx=0;exitDy=0;entryX=0.5;entryY=0;entryDx=0;entryDy=0;endArrow=none;endFill=0;" parent="1" source="uz5s3VPcYe5UYgjy9mx2-5" target="uz5s3VPcYe5UYgjy9mx2-13" edge="1">
          <mxGeometry relative="1" as="geometry" />
        </mxCell>
        <mxCell id="uz5s3VPcYe5UYgjy9mx2-5" value="d" style="ellipse;whiteSpace=wrap;html=1;aspect=fixed;" parent="1" vertex="1">
          <mxGeometry x="108" y="1357.6299999999999" width="30" height="30" as="geometry" />
        </mxCell>
        <mxCell id="uz5s3VPcYe5UYgjy9mx2-6" value="1" style="text;html=1;align=center;verticalAlign=middle;whiteSpace=wrap;rounded=0;" parent="1" vertex="1">
          <mxGeometry x="110.72" y="1180.8" width="7.5" height="10" as="geometry" />
        </mxCell>
        <mxCell id="uz5s3VPcYe5UYgjy9mx2-7" value="1" style="text;html=1;align=center;verticalAlign=middle;whiteSpace=wrap;rounded=0;" parent="1" vertex="1">
          <mxGeometry x="113.47" y="1275.05" width="5" height="10" as="geometry" />
        </mxCell>
        <mxCell id="uz5s3VPcYe5UYgjy9mx2-11" value="BooleanAnswer" style="rounded=0;whiteSpace=wrap;html=1;" parent="1" vertex="1">
          <mxGeometry x="63" y="1446.9999999999998" width="120" height="40" as="geometry" />
        </mxCell>
        <mxCell id="ODht4TJ9SO5vpi4dF8H--34" style="rounded=0;orthogonalLoop=1;jettySize=auto;html=1;exitX=0.25;exitY=1;exitDx=0;exitDy=0;entryX=0.5;entryY=0;entryDx=0;entryDy=0;endArrow=none;endFill=0;" parent="1" source="uz5s3VPcYe5UYgjy9mx2-12" target="ODht4TJ9SO5vpi4dF8H--31" edge="1">
          <mxGeometry relative="1" as="geometry" />
        </mxCell>
        <mxCell id="uz5s3VPcYe5UYgjy9mx2-12" value="StringAnswer" style="rounded=0;whiteSpace=wrap;html=1;" parent="1" vertex="1">
          <mxGeometry x="-72.00000000000003" y="1446.9999999999998" width="120" height="40" as="geometry" />
        </mxCell>
        <mxCell id="uz5s3VPcYe5UYgjy9mx2-13" value="StringListAnswer" style="rounded=0;whiteSpace=wrap;html=1;" parent="1" vertex="1">
          <mxGeometry x="198" y="1446.9999999999998" width="120" height="40" as="geometry" />
        </mxCell>
        <mxCell id="uz5s3VPcYe5UYgjy9mx2-19" value="" style="endArrow=none;html=1;rounded=0;curved=1;" parent="1" edge="1">
          <mxGeometry width="50" height="50" relative="1" as="geometry">
            <mxPoint x="78.47" y="1417.6299999999999" as="sourcePoint" />
            <mxPoint x="68.47" y="1397.6299999999999" as="targetPoint" />
            <Array as="points">
              <mxPoint x="58.47" y="1417.6299999999999" />
            </Array>
          </mxGeometry>
        </mxCell>
        <mxCell id="uz5s3VPcYe5UYgjy9mx2-20" value="" style="endArrow=none;html=1;rounded=0;curved=1;" parent="1" edge="1">
          <mxGeometry width="50" height="50" relative="1" as="geometry">
            <mxPoint x="113" y="1416.2099999999998" as="sourcePoint" />
            <mxPoint x="133" y="1416.2099999999998" as="targetPoint" />
            <Array as="points">
              <mxPoint x="123" y="1436.2099999999998" />
            </Array>
          </mxGeometry>
        </mxCell>
        <mxCell id="uz5s3VPcYe5UYgjy9mx2-21" value="" style="endArrow=none;html=1;rounded=0;curved=1;" parent="1" edge="1">
          <mxGeometry width="50" height="50" relative="1" as="geometry">
            <mxPoint x="178" y="1422.6299999999999" as="sourcePoint" />
            <mxPoint x="188" y="1402.6299999999999" as="targetPoint" />
            <Array as="points">
              <mxPoint x="198" y="1422.6299999999999" />
            </Array>
          </mxGeometry>
        </mxCell>
        <mxCell id="uz5s3VPcYe5UYgjy9mx2-24" value="" style="rounded=0;orthogonalLoop=1;jettySize=auto;html=1;endArrow=none;endFill=0;" parent="1" source="uz5s3VPcYe5UYgjy9mx2-26" target="uz5s3VPcYe5UYgjy9mx2-29" edge="1">
          <mxGeometry relative="1" as="geometry" />
        </mxCell>
        <mxCell id="ODht4TJ9SO5vpi4dF8H--20" style="edgeStyle=orthogonalEdgeStyle;rounded=0;orthogonalLoop=1;jettySize=auto;html=1;exitX=1;exitY=0.5;exitDx=0;exitDy=0;entryX=0;entryY=0.5;entryDx=0;entryDy=0;endArrow=none;endFill=0;shape=link;" parent="1" source="uz5s3VPcYe5UYgjy9mx2-26" target="Yb0VxK4vsEoRjDZreyK2-21" edge="1">
          <mxGeometry relative="1" as="geometry" />
        </mxCell>
        <mxCell id="uz5s3VPcYe5UYgjy9mx2-26" value="Rule" style="rounded=0;whiteSpace=wrap;html=1;" parent="1" vertex="1">
          <mxGeometry x="773.3299999999999" y="994.2900000000001" width="120" height="40" as="geometry" />
        </mxCell>
        <mxCell id="uz5s3VPcYe5UYgjy9mx2-29" value="&lt;u&gt;Id&lt;/u&gt;" style="ellipse;whiteSpace=wrap;html=1;" parent="1" vertex="1">
          <mxGeometry x="798.3299999999999" y="930.21" width="70" height="37.5" as="geometry" />
        </mxCell>
        <mxCell id="uz5s3VPcYe5UYgjy9mx2-39" value="" style="edgeStyle=orthogonalEdgeStyle;rounded=0;orthogonalLoop=1;jettySize=auto;html=1;endArrow=none;endFill=0;entryX=0.5;entryY=0;entryDx=0;entryDy=0;shape=link;" parent="1" source="uz5s3VPcYe5UYgjy9mx2-41" target="uz5s3VPcYe5UYgjy9mx2-48" edge="1">
          <mxGeometry relative="1" as="geometry">
            <mxPoint x="1053.5899999999997" y="1150.32" as="targetPoint" />
          </mxGeometry>
        </mxCell>
        <mxCell id="uz5s3VPcYe5UYgjy9mx2-40" style="rounded=0;orthogonalLoop=1;jettySize=auto;html=1;exitX=0.5;exitY=0;exitDx=0;exitDy=0;entryX=0.5;entryY=1;entryDx=0;entryDy=0;endArrow=none;endFill=0;" parent="1" source="uz5s3VPcYe5UYgjy9mx2-41" target="uz5s3VPcYe5UYgjy9mx2-63" edge="1">
          <mxGeometry relative="1" as="geometry" />
        </mxCell>
        <mxCell id="ODht4TJ9SO5vpi4dF8H--21" style="edgeStyle=orthogonalEdgeStyle;rounded=0;orthogonalLoop=1;jettySize=auto;html=1;exitX=0;exitY=0.5;exitDx=0;exitDy=0;entryX=1;entryY=0.5;entryDx=0;entryDy=0;endArrow=none;endFill=0;" parent="1" source="uz5s3VPcYe5UYgjy9mx2-41" target="Yb0VxK4vsEoRjDZreyK2-21" edge="1">
          <mxGeometry relative="1" as="geometry">
            <Array as="points">
              <mxPoint x="1010" y="1014" />
              <mxPoint x="1010" y="1014" />
            </Array>
          </mxGeometry>
        </mxCell>
        <mxCell id="uz5s3VPcYe5UYgjy9mx2-41" value="TopLevelCondition" style="rounded=0;whiteSpace=wrap;html=1;" parent="1" vertex="1">
          <mxGeometry x="1032.32" y="994.1199999999998" width="120" height="40" as="geometry" />
        </mxCell>
        <mxCell id="uz5s3VPcYe5UYgjy9mx2-42" value="1" style="text;html=1;align=center;verticalAlign=middle;whiteSpace=wrap;rounded=0;" parent="1" vertex="1">
          <mxGeometry x="895.8299999999999" y="994.2900000000001" width="9.23" height="15.03" as="geometry" />
        </mxCell>
        <mxCell id="uz5s3VPcYe5UYgjy9mx2-44" style="rounded=0;orthogonalLoop=1;jettySize=auto;html=1;exitX=0.5;exitY=1;exitDx=0;exitDy=0;entryX=0.5;entryY=0;entryDx=0;entryDy=0;endArrow=none;endFill=0;" parent="1" source="uz5s3VPcYe5UYgjy9mx2-48" target="uz5s3VPcYe5UYgjy9mx2-50" edge="1">
          <mxGeometry relative="1" as="geometry">
            <mxPoint x="1092.6300000000006" y="1183.43" as="sourcePoint" />
            <mxPoint x="963.2700000000001" y="1177.8600000000001" as="targetPoint" />
          </mxGeometry>
        </mxCell>
        <mxCell id="uz5s3VPcYe5UYgjy9mx2-45" style="rounded=0;orthogonalLoop=1;jettySize=auto;html=1;exitX=0.5;exitY=1;exitDx=0;exitDy=0;entryX=0.5;entryY=0;entryDx=0;entryDy=0;endArrow=none;endFill=0;" parent="1" source="uz5s3VPcYe5UYgjy9mx2-48" target="uz5s3VPcYe5UYgjy9mx2-52" edge="1">
          <mxGeometry relative="1" as="geometry">
            <mxPoint x="1092.6300000000006" y="1183.43" as="sourcePoint" />
          </mxGeometry>
        </mxCell>
        <mxCell id="uz5s3VPcYe5UYgjy9mx2-46" style="rounded=0;orthogonalLoop=1;jettySize=auto;html=1;exitX=0.5;exitY=1;exitDx=0;exitDy=0;entryX=0.5;entryY=0;entryDx=0;entryDy=0;endArrow=none;endFill=0;" parent="1" source="uz5s3VPcYe5UYgjy9mx2-48" target="uz5s3VPcYe5UYgjy9mx2-54" edge="1">
          <mxGeometry relative="1" as="geometry">
            <mxPoint x="1092.6300000000006" y="1183.43" as="sourcePoint" />
          </mxGeometry>
        </mxCell>
        <mxCell id="uz5s3VPcYe5UYgjy9mx2-48" value="d" style="ellipse;whiteSpace=wrap;html=1;aspect=fixed;" parent="1" vertex="1">
          <mxGeometry x="1077.63" y="1092.43" width="30" height="30" as="geometry" />
        </mxCell>
        <mxCell id="uz5s3VPcYe5UYgjy9mx2-50" value="AllCondition" style="rounded=0;whiteSpace=wrap;html=1;" parent="1" vertex="1">
          <mxGeometry x="905.06" y="1177.8600000000001" width="120" height="40" as="geometry" />
        </mxCell>
        <mxCell id="uz5s3VPcYe5UYgjy9mx2-52" value="AnyCondition" style="rounded=0;whiteSpace=wrap;html=1;" parent="1" vertex="1">
          <mxGeometry x="1032" y="1177.8600000000001" width="120" height="40" as="geometry" />
        </mxCell>
        <mxCell id="uz5s3VPcYe5UYgjy9mx2-54" value="NotCondition" style="rounded=0;whiteSpace=wrap;html=1;" parent="1" vertex="1">
          <mxGeometry x="1162.14" y="1177.8600000000001" width="120" height="40" as="geometry" />
        </mxCell>
        <mxCell id="uz5s3VPcYe5UYgjy9mx2-57" value="" style="edgeStyle=orthogonalEdgeStyle;rounded=0;orthogonalLoop=1;jettySize=auto;html=1;endArrow=none;endFill=0;shape=link;" parent="1" source="uz5s3VPcYe5UYgjy9mx2-61" target="uz5s3VPcYe5UYgjy9mx2-63" edge="1">
          <mxGeometry relative="1" as="geometry" />
        </mxCell>
        <mxCell id="uz5s3VPcYe5UYgjy9mx2-60" style="rounded=0;orthogonalLoop=1;jettySize=auto;html=1;exitX=0;exitY=0.5;exitDx=0;exitDy=0;entryX=1;entryY=0.5;entryDx=0;entryDy=0;endArrow=none;endFill=0;" parent="1" source="uz5s3VPcYe5UYgjy9mx2-61" target="uz5s3VPcYe5UYgjy9mx2-83" edge="1">
          <mxGeometry relative="1" as="geometry" />
        </mxCell>
        <mxCell id="ODht4TJ9SO5vpi4dF8H--24" style="edgeStyle=orthogonalEdgeStyle;rounded=0;orthogonalLoop=1;jettySize=auto;html=1;exitX=1;exitY=1;exitDx=0;exitDy=0;entryX=0.5;entryY=0;entryDx=0;entryDy=0;endArrow=none;endFill=0;" parent="1" source="uz5s3VPcYe5UYgjy9mx2-61" target="Yb0VxK4vsEoRjDZreyK2-27" edge="1">
          <mxGeometry relative="1" as="geometry">
            <Array as="points">
              <mxPoint x="1366" y="917" />
            </Array>
          </mxGeometry>
        </mxCell>
        <mxCell id="ODht4TJ9SO5vpi4dF8H--25" style="edgeStyle=orthogonalEdgeStyle;rounded=0;orthogonalLoop=1;jettySize=auto;html=1;exitX=1;exitY=0.5;exitDx=0;exitDy=0;entryX=0.5;entryY=0;entryDx=0;entryDy=0;endArrow=none;endFill=0;" parent="1" source="uz5s3VPcYe5UYgjy9mx2-61" target="Yb0VxK4vsEoRjDZreyK2-28" edge="1">
          <mxGeometry relative="1" as="geometry" />
        </mxCell>
        <mxCell id="ODht4TJ9SO5vpi4dF8H--26" style="edgeStyle=orthogonalEdgeStyle;rounded=0;orthogonalLoop=1;jettySize=auto;html=1;exitX=1;exitY=0;exitDx=0;exitDy=0;entryX=0.5;entryY=0;entryDx=0;entryDy=0;endArrow=none;endFill=0;" parent="1" source="uz5s3VPcYe5UYgjy9mx2-61" target="Yb0VxK4vsEoRjDZreyK2-29" edge="1">
          <mxGeometry relative="1" as="geometry">
            <Array as="points">
              <mxPoint x="1479" y="877" />
            </Array>
          </mxGeometry>
        </mxCell>
        <mxCell id="uz5s3VPcYe5UYgjy9mx2-61" value="NestedCondition" style="rounded=0;whiteSpace=wrap;html=1;" parent="1" vertex="1">
          <mxGeometry x="1108.8699999999997" y="876.99" width="120" height="40" as="geometry" />
        </mxCell>
        <mxCell id="uz5s3VPcYe5UYgjy9mx2-62" style="rounded=0;orthogonalLoop=1;jettySize=auto;html=1;exitX=0.5;exitY=1;exitDx=0;exitDy=0;entryX=0.5;entryY=0;entryDx=0;entryDy=0;endArrow=none;endFill=0;" parent="1" source="uz5s3VPcYe5UYgjy9mx2-63" target="uz5s3VPcYe5UYgjy9mx2-65" edge="1">
          <mxGeometry relative="1" as="geometry" />
        </mxCell>
        <mxCell id="uz5s3VPcYe5UYgjy9mx2-63" value="d" style="ellipse;whiteSpace=wrap;html=1;aspect=fixed;" parent="1" vertex="1">
          <mxGeometry x="1153.8699999999997" y="936.05" width="30" height="30" as="geometry" />
        </mxCell>
        <mxCell id="Yb0VxK4vsEoRjDZreyK2-26" style="rounded=0;orthogonalLoop=1;jettySize=auto;html=1;exitX=0.5;exitY=1;exitDx=0;exitDy=0;entryX=0.5;entryY=0;entryDx=0;entryDy=0;endArrow=none;endFill=0;" parent="1" source="uz5s3VPcYe5UYgjy9mx2-65" target="Yb0VxK4vsEoRjDZreyK2-25" edge="1">
          <mxGeometry relative="1" as="geometry" />
        </mxCell>
        <mxCell id="uz5s3VPcYe5UYgjy9mx2-65" value="ConditionProperties" style="rounded=0;whiteSpace=wrap;html=1;" parent="1" vertex="1">
          <mxGeometry x="1178.8499999999997" y="993.2899999999998" width="120" height="40" as="geometry" />
        </mxCell>
        <mxCell id="uz5s3VPcYe5UYgjy9mx2-66" style="rounded=0;orthogonalLoop=1;jettySize=auto;html=1;exitX=0.5;exitY=0;exitDx=0;exitDy=0;entryX=0.25;entryY=1;entryDx=0;entryDy=0;endArrow=none;endFill=0;" parent="1" source="uz5s3VPcYe5UYgjy9mx2-67" target="uz5s3VPcYe5UYgjy9mx2-65" edge="1">
          <mxGeometry relative="1" as="geometry" />
        </mxCell>
        <mxCell id="uz5s3VPcYe5UYgjy9mx2-67" value="operator" style="ellipse;whiteSpace=wrap;html=1;" parent="1" vertex="1">
          <mxGeometry x="1143.8499999999997" y="1061.62" width="50" height="30" as="geometry" />
        </mxCell>
        <mxCell id="uz5s3VPcYe5UYgjy9mx2-68" style="edgeStyle=orthogonalEdgeStyle;rounded=0;orthogonalLoop=1;jettySize=auto;html=1;exitX=0.5;exitY=1;exitDx=0;exitDy=0;" parent="1" source="uz5s3VPcYe5UYgjy9mx2-67" target="uz5s3VPcYe5UYgjy9mx2-67" edge="1">
          <mxGeometry relative="1" as="geometry" />
        </mxCell>
        <mxCell id="uz5s3VPcYe5UYgjy9mx2-69" style="rounded=0;orthogonalLoop=1;jettySize=auto;html=1;exitX=0.5;exitY=0;exitDx=0;exitDy=0;entryX=0.75;entryY=1;entryDx=0;entryDy=0;endArrow=none;endFill=0;" parent="1" source="uz5s3VPcYe5UYgjy9mx2-70" target="uz5s3VPcYe5UYgjy9mx2-65" edge="1">
          <mxGeometry relative="1" as="geometry" />
        </mxCell>
        <mxCell id="uz5s3VPcYe5UYgjy9mx2-70" value="value" style="ellipse;whiteSpace=wrap;html=1;" parent="1" vertex="1">
          <mxGeometry x="1278.8499999999997" y="1054.12" width="50" height="30" as="geometry" />
        </mxCell>
        <mxCell id="uz5s3VPcYe5UYgjy9mx2-72" value="N" style="text;html=1;align=center;verticalAlign=middle;whiteSpace=wrap;rounded=0;" parent="1" vertex="1">
          <mxGeometry x="1233.74" y="863.56" width="7.94" height="11.32" as="geometry" />
        </mxCell>
        <mxCell id="uz5s3VPcYe5UYgjy9mx2-73" value="N" style="text;html=1;align=center;verticalAlign=middle;whiteSpace=wrap;rounded=0;" parent="1" vertex="1">
          <mxGeometry x="1235.27" y="882.52" width="6.41" height="12.74" as="geometry" />
        </mxCell>
        <mxCell id="uz5s3VPcYe5UYgjy9mx2-75" value="1" style="text;html=1;align=center;verticalAlign=middle;whiteSpace=wrap;rounded=0;" parent="1" vertex="1">
          <mxGeometry x="1207.22" y="1220.29" width="10.47" height="12.14" as="geometry" />
        </mxCell>
        <mxCell id="uz5s3VPcYe5UYgjy9mx2-76" value="1" style="text;html=1;align=center;verticalAlign=middle;whiteSpace=wrap;rounded=0;" parent="1" vertex="1">
          <mxGeometry x="1074" y="1221.3" width="12.37" height="11.13" as="geometry" />
        </mxCell>
        <mxCell id="uz5s3VPcYe5UYgjy9mx2-77" value="1" style="text;html=1;align=center;verticalAlign=middle;whiteSpace=wrap;rounded=0;" parent="1" vertex="1">
          <mxGeometry x="950" y="1219.49" width="10" height="17.86" as="geometry" />
        </mxCell>
        <mxCell id="uz5s3VPcYe5UYgjy9mx2-80" value="1" style="text;html=1;align=center;verticalAlign=middle;whiteSpace=wrap;rounded=0;" parent="1" vertex="1">
          <mxGeometry x="1235.27" y="904.39" width="7.2" height="10" as="geometry" />
        </mxCell>
        <mxCell id="uz5s3VPcYe5UYgjy9mx2-83" value="&lt;u&gt;Id&lt;/u&gt;" style="ellipse;whiteSpace=wrap;html=1;" parent="1" vertex="1">
          <mxGeometry x="1028.87" y="878.24" width="70" height="37.5" as="geometry" />
        </mxCell>
        <mxCell id="uz5s3VPcYe5UYgjy9mx2-318" style="edgeStyle=orthogonalEdgeStyle;rounded=0;orthogonalLoop=1;jettySize=auto;html=1;exitX=0.5;exitY=1;exitDx=0;exitDy=0;entryX=0.5;entryY=1;entryDx=0;entryDy=0;shape=link;" parent="1" source="Yb0VxK4vsEoRjDZreyK2-27" target="uz5s3VPcYe5UYgjy9mx2-54" edge="1">
          <mxGeometry relative="1" as="geometry">
            <Array as="points">
              <mxPoint x="1366" y="1250" />
              <mxPoint x="1222" y="1250" />
            </Array>
          </mxGeometry>
        </mxCell>
        <mxCell id="uz5s3VPcYe5UYgjy9mx2-319" style="edgeStyle=orthogonalEdgeStyle;rounded=0;orthogonalLoop=1;jettySize=auto;html=1;exitX=0.5;exitY=1;exitDx=0;exitDy=0;entryX=0.5;entryY=1;entryDx=0;entryDy=0;endArrow=none;endFill=0;" parent="1" source="Yb0VxK4vsEoRjDZreyK2-29" target="uz5s3VPcYe5UYgjy9mx2-50" edge="1">
          <mxGeometry relative="1" as="geometry">
            <Array as="points">
              <mxPoint x="1479" y="1290" />
              <mxPoint x="965" y="1290" />
            </Array>
          </mxGeometry>
        </mxCell>
        <mxCell id="uz5s3VPcYe5UYgjy9mx2-104" value="1" style="text;html=1;align=center;verticalAlign=middle;whiteSpace=wrap;rounded=0;" parent="1" vertex="1">
          <mxGeometry x="1019.64" y="996.1099999999998" width="9.23" height="15.03" as="geometry" />
        </mxCell>
        <mxCell id="uz5s3VPcYe5UYgjy9mx2-109" style="edgeStyle=orthogonalEdgeStyle;rounded=0;orthogonalLoop=1;jettySize=auto;html=1;exitX=0.5;exitY=1;exitDx=0;exitDy=0;entryX=0.5;entryY=0;entryDx=0;entryDy=0;endArrow=none;endFill=0;shape=link;" parent="1" source="uz5s3VPcYe5UYgjy9mx2-110" target="uz5s3VPcYe5UYgjy9mx2-114" edge="1">
          <mxGeometry relative="1" as="geometry" />
        </mxCell>
        <mxCell id="uz5s3VPcYe5UYgjy9mx2-136" style="edgeStyle=orthogonalEdgeStyle;rounded=0;orthogonalLoop=1;jettySize=auto;html=1;exitX=0.5;exitY=0;exitDx=0;exitDy=0;entryX=0.5;entryY=1;entryDx=0;entryDy=0;endArrow=none;endFill=0;shape=link;" parent="1" source="uz5s3VPcYe5UYgjy9mx2-110" target="uz5s3VPcYe5UYgjy9mx2-26" edge="1">
          <mxGeometry relative="1" as="geometry">
            <mxPoint x="833.3299999999999" y="1067.04" as="sourcePoint" />
          </mxGeometry>
        </mxCell>
        <mxCell id="uz5s3VPcYe5UYgjy9mx2-110" value="has" style="rhombus;whiteSpace=wrap;html=1;" parent="1" vertex="1">
          <mxGeometry x="804.9699999999999" y="1066.12" width="56.72" height="56.25" as="geometry" />
        </mxCell>
        <mxCell id="uz5s3VPcYe5UYgjy9mx2-114" value="Event" style="rounded=0;whiteSpace=wrap;html=1;" parent="1" vertex="1">
          <mxGeometry x="773.3299999999999" y="1152.62" width="120" height="40" as="geometry" />
        </mxCell>
        <mxCell id="uz5s3VPcYe5UYgjy9mx2-115" style="rounded=0;orthogonalLoop=1;jettySize=auto;html=1;exitX=0.5;exitY=0;exitDx=0;exitDy=0;entryX=0.25;entryY=1;entryDx=0;entryDy=0;endArrow=none;endFill=0;" parent="1" source="uz5s3VPcYe5UYgjy9mx2-116" target="uz5s3VPcYe5UYgjy9mx2-114" edge="1">
          <mxGeometry relative="1" as="geometry" />
        </mxCell>
        <mxCell id="uz5s3VPcYe5UYgjy9mx2-116" value="&lt;u&gt;Id&lt;/u&gt;" style="ellipse;whiteSpace=wrap;html=1;" parent="1" vertex="1">
          <mxGeometry x="729.0099999999999" y="1223.24" width="40.99" height="30" as="geometry" />
        </mxCell>
        <mxCell id="uz5s3VPcYe5UYgjy9mx2-117" style="rounded=0;orthogonalLoop=1;jettySize=auto;html=1;exitX=0.5;exitY=0;exitDx=0;exitDy=0;entryX=0.75;entryY=1;entryDx=0;entryDy=0;endArrow=none;endFill=0;" parent="1" source="uz5s3VPcYe5UYgjy9mx2-118" target="uz5s3VPcYe5UYgjy9mx2-114" edge="1">
          <mxGeometry relative="1" as="geometry">
            <mxPoint x="789.7881778886594" y="1207.4963340638542" as="sourcePoint" />
          </mxGeometry>
        </mxCell>
        <mxCell id="uz5s3VPcYe5UYgjy9mx2-118" value="EventType" style="ellipse;whiteSpace=wrap;html=1;" parent="1" vertex="1">
          <mxGeometry x="828.3299999999999" y="1226.05" width="70" height="37.5" as="geometry" />
        </mxCell>
        <mxCell id="uz5s3VPcYe5UYgjy9mx2-119" value="1" style="text;html=1;align=center;verticalAlign=middle;whiteSpace=wrap;rounded=0;" parent="1" vertex="1">
          <mxGeometry x="813.3299999999999" y="1132.62" width="20" height="20" as="geometry" />
        </mxCell>
        <mxCell id="uz5s3VPcYe5UYgjy9mx2-134" value="1" style="text;html=1;align=center;verticalAlign=middle;whiteSpace=wrap;rounded=0;" parent="1" vertex="1">
          <mxGeometry x="635.3499999999999" y="1120.0300000000002" width="10" height="13.58" as="geometry" />
        </mxCell>
        <mxCell id="uz5s3VPcYe5UYgjy9mx2-137" value="1" style="text;html=1;align=center;verticalAlign=middle;whiteSpace=wrap;rounded=0;" parent="1" vertex="1">
          <mxGeometry x="814.3299999999999" y="1040.79" width="14" height="20" as="geometry" />
        </mxCell>
        <mxCell id="uz5s3VPcYe5UYgjy9mx2-234" style="rounded=0;orthogonalLoop=1;jettySize=auto;html=1;exitX=0.5;exitY=0;exitDx=0;exitDy=0;entryX=0.5;entryY=1;entryDx=0;entryDy=0;endArrow=none;endFill=0;shape=link;" parent="1" source="uz5s3VPcYe5UYgjy9mx2-238" edge="1">
          <mxGeometry relative="1" as="geometry">
            <mxPoint x="421.87" y="243" as="targetPoint" />
          </mxGeometry>
        </mxCell>
        <mxCell id="uz5s3VPcYe5UYgjy9mx2-235" style="rounded=0;orthogonalLoop=1;jettySize=auto;html=1;exitX=0.5;exitY=1;exitDx=0;exitDy=0;entryX=0.5;entryY=0;entryDx=0;entryDy=0;endArrow=none;endFill=0;" parent="1" source="uz5s3VPcYe5UYgjy9mx2-238" target="uz5s3VPcYe5UYgjy9mx2-240" edge="1">
          <mxGeometry relative="1" as="geometry" />
        </mxCell>
        <mxCell id="uz5s3VPcYe5UYgjy9mx2-236" style="rounded=0;orthogonalLoop=1;jettySize=auto;html=1;exitX=0.5;exitY=1;exitDx=0;exitDy=0;entryX=0.5;entryY=0;entryDx=0;entryDy=0;endArrow=none;endFill=0;" parent="1" source="uz5s3VPcYe5UYgjy9mx2-238" target="uz5s3VPcYe5UYgjy9mx2-239" edge="1">
          <mxGeometry relative="1" as="geometry" />
        </mxCell>
        <mxCell id="uz5s3VPcYe5UYgjy9mx2-237" style="rounded=0;orthogonalLoop=1;jettySize=auto;html=1;exitX=0.5;exitY=1;exitDx=0;exitDy=0;entryX=0.5;entryY=0;entryDx=0;entryDy=0;endArrow=none;endFill=0;" parent="1" source="uz5s3VPcYe5UYgjy9mx2-238" target="uz5s3VPcYe5UYgjy9mx2-241" edge="1">
          <mxGeometry relative="1" as="geometry" />
        </mxCell>
        <mxCell id="uz5s3VPcYe5UYgjy9mx2-238" value="o" style="ellipse;whiteSpace=wrap;html=1;aspect=fixed;" parent="1" vertex="1">
          <mxGeometry x="406.87" y="293" width="30" height="30" as="geometry" />
        </mxCell>
        <mxCell id="uz5s3VPcYe5UYgjy9mx2-274" style="edgeStyle=orthogonalEdgeStyle;rounded=0;orthogonalLoop=1;jettySize=auto;html=1;entryX=1;entryY=0.5;entryDx=0;entryDy=0;endArrow=none;endFill=0;" parent="1" target="uz5s3VPcYe5UYgjy9mx2-273" edge="1">
          <mxGeometry relative="1" as="geometry">
            <mxPoint x="360" y="420" as="sourcePoint" />
          </mxGeometry>
        </mxCell>
        <mxCell id="uz5s3VPcYe5UYgjy9mx2-277" style="edgeStyle=orthogonalEdgeStyle;rounded=0;orthogonalLoop=1;jettySize=auto;html=1;exitX=0;exitY=1;exitDx=0;exitDy=0;entryX=0.5;entryY=0;entryDx=0;entryDy=0;endArrow=none;endFill=0;" parent="1" source="uz5s3VPcYe5UYgjy9mx2-239" target="LFgC7dUqhhn3A7_hZchA-35" edge="1">
          <mxGeometry relative="1" as="geometry">
            <Array as="points">
              <mxPoint x="322" y="460" />
            </Array>
          </mxGeometry>
        </mxCell>
        <mxCell id="uz5s3VPcYe5UYgjy9mx2-239" value="Doctor" style="rounded=0;whiteSpace=wrap;html=1;" parent="1" vertex="1">
          <mxGeometry x="361" y="420" width="120" height="40" as="geometry" />
        </mxCell>
        <mxCell id="uz5s3VPcYe5UYgjy9mx2-276" style="edgeStyle=orthogonalEdgeStyle;rounded=0;orthogonalLoop=1;jettySize=auto;html=1;exitX=0.5;exitY=1;exitDx=0;exitDy=0;entryX=0.5;entryY=0;entryDx=0;entryDy=0;endArrow=none;endFill=0;" parent="1" source="uz5s3VPcYe5UYgjy9mx2-240" target="uz5s3VPcYe5UYgjy9mx2-256" edge="1">
          <mxGeometry relative="1" as="geometry" />
        </mxCell>
        <mxCell id="uz5s3VPcYe5UYgjy9mx2-333" style="edgeStyle=orthogonalEdgeStyle;rounded=0;orthogonalLoop=1;jettySize=auto;html=1;exitX=0;exitY=0.5;exitDx=0;exitDy=0;entryX=1;entryY=0.5;entryDx=0;entryDy=0;endArrow=none;endFill=0;" parent="1" source="uz5s3VPcYe5UYgjy9mx2-240" target="XRhQmhR6qjBcn8VVitBR-90" edge="1">
          <mxGeometry relative="1" as="geometry" />
        </mxCell>
        <mxCell id="uz5s3VPcYe5UYgjy9mx2-355" style="rounded=0;orthogonalLoop=1;jettySize=auto;html=1;exitX=0.418;exitY=0.021;exitDx=0;exitDy=0;entryX=0.5;entryY=1;entryDx=0;entryDy=0;endArrow=none;endFill=0;exitPerimeter=0;" parent="1" source="uz5s3VPcYe5UYgjy9mx2-240" target="LFgC7dUqhhn3A7_hZchA-106" edge="1">
          <mxGeometry relative="1" as="geometry" />
        </mxCell>
        <mxCell id="uz5s3VPcYe5UYgjy9mx2-240" value="Donor" style="rounded=0;whiteSpace=wrap;html=1;" parent="1" vertex="1">
          <mxGeometry x="71" y="420" width="120" height="40" as="geometry" />
        </mxCell>
        <mxCell id="uz5s3VPcYe5UYgjy9mx2-339" style="edgeStyle=orthogonalEdgeStyle;rounded=0;orthogonalLoop=1;jettySize=auto;html=1;exitX=0;exitY=0.5;exitDx=0;exitDy=0;entryX=0.5;entryY=0;entryDx=0;entryDy=0;endArrow=none;endFill=0;" parent="1" source="uz5s3VPcYe5UYgjy9mx2-241" target="uz5s3VPcYe5UYgjy9mx2-335" edge="1">
          <mxGeometry relative="1" as="geometry" />
        </mxCell>
        <mxCell id="ODht4TJ9SO5vpi4dF8H--42" style="edgeStyle=orthogonalEdgeStyle;rounded=0;orthogonalLoop=1;jettySize=auto;html=1;exitX=1;exitY=0.5;exitDx=0;exitDy=0;entryX=0;entryY=0.5;entryDx=0;entryDy=0;endArrow=none;endFill=0;" parent="1" source="uz5s3VPcYe5UYgjy9mx2-241" target="uz5s3VPcYe5UYgjy9mx2-305" edge="1">
          <mxGeometry relative="1" as="geometry" />
        </mxCell>
        <mxCell id="uz5s3VPcYe5UYgjy9mx2-241" value="Admin" style="rounded=0;whiteSpace=wrap;html=1;" parent="1" vertex="1">
          <mxGeometry x="650" y="420" width="120" height="40" as="geometry" />
        </mxCell>
        <mxCell id="uz5s3VPcYe5UYgjy9mx2-244" value="1" style="text;html=1;align=center;verticalAlign=middle;whiteSpace=wrap;rounded=0;" parent="1" vertex="1">
          <mxGeometry x="349.81" y="443.33" width="9" height="20" as="geometry" />
        </mxCell>
        <mxCell id="uz5s3VPcYe5UYgjy9mx2-247" value="has" style="rhombus;whiteSpace=wrap;html=1;" parent="1" vertex="1">
          <mxGeometry x="31.560000000000002" y="776.9" width="70" height="60" as="geometry" />
        </mxCell>
        <mxCell id="uz5s3VPcYe5UYgjy9mx2-251" style="edgeStyle=orthogonalEdgeStyle;rounded=0;orthogonalLoop=1;jettySize=auto;html=1;exitX=0;exitY=0.5;exitDx=0;exitDy=0;entryX=1;entryY=0.5;entryDx=0;entryDy=0;endArrow=none;endFill=0;shape=link;" parent="1" source="uz5s3VPcYe5UYgjy9mx2-247" target="XRhQmhR6qjBcn8VVitBR-56" edge="1">
          <mxGeometry relative="1" as="geometry">
            <mxPoint x="155.06" y="1086.9" as="targetPoint" />
          </mxGeometry>
        </mxCell>
        <mxCell id="uz5s3VPcYe5UYgjy9mx2-253" value="1" style="text;html=1;align=center;verticalAlign=middle;whiteSpace=wrap;rounded=0;" parent="1" vertex="1">
          <mxGeometry x="247.06" y="794.57" width="9" height="10" as="geometry" />
        </mxCell>
        <mxCell id="uz5s3VPcYe5UYgjy9mx2-256" value="has" style="rhombus;whiteSpace=wrap;html=1;" parent="1" vertex="1">
          <mxGeometry x="96" y="491.94" width="70" height="60" as="geometry" />
        </mxCell>
        <mxCell id="uz5s3VPcYe5UYgjy9mx2-268" style="rounded=0;orthogonalLoop=1;jettySize=auto;html=1;exitX=0;exitY=0.25;exitDx=0;exitDy=0;entryX=1;entryY=0.5;entryDx=0;entryDy=0;endArrow=none;endFill=0;dashed=1;" parent="1" source="uz5s3VPcYe5UYgjy9mx2-258" target="uz5s3VPcYe5UYgjy9mx2-265" edge="1">
          <mxGeometry relative="1" as="geometry" />
        </mxCell>
        <mxCell id="uz5s3VPcYe5UYgjy9mx2-269" style="rounded=0;orthogonalLoop=1;jettySize=auto;html=1;exitX=0.25;exitY=1;exitDx=0;exitDy=0;entryX=0.5;entryY=0;entryDx=0;entryDy=0;endArrow=none;endFill=0;" parent="1" source="uz5s3VPcYe5UYgjy9mx2-258" target="uz5s3VPcYe5UYgjy9mx2-261" edge="1">
          <mxGeometry relative="1" as="geometry" />
        </mxCell>
        <mxCell id="uz5s3VPcYe5UYgjy9mx2-270" style="rounded=0;orthogonalLoop=1;jettySize=auto;html=1;exitX=0;exitY=0.75;exitDx=0;exitDy=0;entryX=1;entryY=0;entryDx=0;entryDy=0;endArrow=none;endFill=0;" parent="1" source="uz5s3VPcYe5UYgjy9mx2-258" target="uz5s3VPcYe5UYgjy9mx2-262" edge="1">
          <mxGeometry relative="1" as="geometry" />
        </mxCell>
        <mxCell id="uz5s3VPcYe5UYgjy9mx2-271" style="rounded=0;orthogonalLoop=1;jettySize=auto;html=1;exitX=0;exitY=1;exitDx=0;exitDy=0;entryX=1;entryY=0.5;entryDx=0;entryDy=0;endArrow=none;endFill=0;dashed=1;" parent="1" source="uz5s3VPcYe5UYgjy9mx2-258" target="uz5s3VPcYe5UYgjy9mx2-263" edge="1">
          <mxGeometry relative="1" as="geometry" />
        </mxCell>
        <mxCell id="uz5s3VPcYe5UYgjy9mx2-272" style="rounded=0;orthogonalLoop=1;jettySize=auto;html=1;exitX=0;exitY=0.5;exitDx=0;exitDy=0;entryX=1;entryY=0.5;entryDx=0;entryDy=0;endArrow=none;endFill=0;dashed=1;" parent="1" source="uz5s3VPcYe5UYgjy9mx2-258" target="uz5s3VPcYe5UYgjy9mx2-264" edge="1">
          <mxGeometry relative="1" as="geometry" />
        </mxCell>
        <mxCell id="uz5s3VPcYe5UYgjy9mx2-332" value="" style="edgeStyle=orthogonalEdgeStyle;rounded=0;orthogonalLoop=1;jettySize=auto;html=1;endArrow=none;endFill=0;shape=link;" parent="1" source="uz5s3VPcYe5UYgjy9mx2-258" target="uz5s3VPcYe5UYgjy9mx2-256" edge="1">
          <mxGeometry relative="1" as="geometry" />
        </mxCell>
        <mxCell id="uz5s3VPcYe5UYgjy9mx2-258" value="&lt;div&gt;&lt;span style=&quot;background-color: initial;&quot;&gt;Suspension&lt;/span&gt;&lt;br&gt;&lt;/div&gt;" style="rounded=0;whiteSpace=wrap;html=1;" parent="1" vertex="1">
          <mxGeometry x="78.53" y="593.07" width="104.94" height="40" as="geometry" />
        </mxCell>
        <mxCell id="uz5s3VPcYe5UYgjy9mx2-261" value="Type" style="ellipse;whiteSpace=wrap;html=1;" parent="1" vertex="1">
          <mxGeometry x="53.99999999999999" y="673.82" width="60" height="27.5" as="geometry" />
        </mxCell>
        <mxCell id="uz5s3VPcYe5UYgjy9mx2-262" value="StartDate" style="ellipse;whiteSpace=wrap;html=1;" parent="1" vertex="1">
          <mxGeometry x="-37.78" y="625.25" width="75" height="30" as="geometry" />
        </mxCell>
        <mxCell id="uz5s3VPcYe5UYgjy9mx2-263" value="EndDate" style="ellipse;whiteSpace=wrap;html=1;" parent="1" vertex="1">
          <mxGeometry x="-24" y="661.32" width="70" height="27.5" as="geometry" />
        </mxCell>
        <mxCell id="uz5s3VPcYe5UYgjy9mx2-264" value="Reason" style="ellipse;whiteSpace=wrap;html=1;" parent="1" vertex="1">
          <mxGeometry x="-45.53" y="595.08" width="59.5" height="30" as="geometry" />
        </mxCell>
        <mxCell id="uz5s3VPcYe5UYgjy9mx2-265" value="Note" style="ellipse;whiteSpace=wrap;html=1;" parent="1" vertex="1">
          <mxGeometry x="-28" y="560.57" width="45" height="24.25" as="geometry" />
        </mxCell>
        <mxCell id="uz5s3VPcYe5UYgjy9mx2-267" style="rounded=0;orthogonalLoop=1;jettySize=auto;html=1;exitX=0.5;exitY=1;exitDx=0;exitDy=0;entryX=0;entryY=0;entryDx=0;entryDy=0;endArrow=none;endFill=0;" parent="1" source="uz5s3VPcYe5UYgjy9mx2-266" target="uz5s3VPcYe5UYgjy9mx2-258" edge="1">
          <mxGeometry relative="1" as="geometry" />
        </mxCell>
        <mxCell id="uz5s3VPcYe5UYgjy9mx2-266" value="&lt;u&gt;Id&lt;/u&gt;" style="ellipse;whiteSpace=wrap;html=1;" parent="1" vertex="1">
          <mxGeometry x="-14" y="528.07" width="60" height="23.75" as="geometry" />
        </mxCell>
        <mxCell id="uz5s3VPcYe5UYgjy9mx2-275" style="edgeStyle=orthogonalEdgeStyle;rounded=0;orthogonalLoop=1;jettySize=auto;html=1;exitX=0.5;exitY=1;exitDx=0;exitDy=0;entryX=1;entryY=0.5;entryDx=0;entryDy=0;endArrow=none;endFill=0;shape=link;" parent="1" source="uz5s3VPcYe5UYgjy9mx2-273" target="uz5s3VPcYe5UYgjy9mx2-258" edge="1">
          <mxGeometry relative="1" as="geometry" />
        </mxCell>
        <mxCell id="uz5s3VPcYe5UYgjy9mx2-273" value="by" style="rhombus;whiteSpace=wrap;html=1;" parent="1" vertex="1">
          <mxGeometry x="227.56" y="390" width="70" height="60" as="geometry" />
        </mxCell>
        <mxCell id="uz5s3VPcYe5UYgjy9mx2-278" value="1" style="text;html=1;align=center;verticalAlign=middle;whiteSpace=wrap;rounded=0;" parent="1" vertex="1">
          <mxGeometry x="349.81" y="400" width="9" height="20" as="geometry" />
        </mxCell>
        <mxCell id="uz5s3VPcYe5UYgjy9mx2-279" value="N" style="text;html=1;align=center;verticalAlign=middle;whiteSpace=wrap;rounded=0;" parent="1" vertex="1">
          <mxGeometry x="190" y="601.73" width="10" height="10.17" as="geometry" />
        </mxCell>
        <mxCell id="uz5s3VPcYe5UYgjy9mx2-280" value="N" style="text;html=1;align=center;verticalAlign=middle;whiteSpace=wrap;rounded=0;" parent="1" vertex="1">
          <mxGeometry x="115" y="579.65" width="10" height="10.17" as="geometry" />
        </mxCell>
        <mxCell id="uz5s3VPcYe5UYgjy9mx2-281" value="1" style="text;html=1;align=center;verticalAlign=middle;whiteSpace=wrap;rounded=0;" parent="1" vertex="1">
          <mxGeometry x="115" y="463.32999999999987" width="10" height="10.17" as="geometry" />
        </mxCell>
        <mxCell id="uz5s3VPcYe5UYgjy9mx2-282" value="1" style="text;html=1;align=center;verticalAlign=middle;whiteSpace=wrap;rounded=0;" parent="1" vertex="1">
          <mxGeometry x="-27.75" y="774.9" width="9" height="10" as="geometry" />
        </mxCell>
        <mxCell id="uz5s3VPcYe5UYgjy9mx2-283" value="N" style="text;html=1;align=center;verticalAlign=middle;whiteSpace=wrap;rounded=0;" parent="1" vertex="1">
          <mxGeometry x="-88.75" y="773.82" width="9" height="10" as="geometry" />
        </mxCell>
        <mxCell id="uz5s3VPcYe5UYgjy9mx2-284" value="1" style="text;html=1;align=center;verticalAlign=middle;whiteSpace=wrap;rounded=0;" parent="1" vertex="1">
          <mxGeometry x="58.06" y="426" width="9" height="10" as="geometry" />
        </mxCell>
        <mxCell id="uz5s3VPcYe5UYgjy9mx2-286" style="rounded=0;orthogonalLoop=1;jettySize=auto;html=1;exitX=0;exitY=0;exitDx=0;exitDy=0;entryX=1;entryY=1;entryDx=0;entryDy=0;endArrow=none;endFill=0;" parent="1" source="uz5s3VPcYe5UYgjy9mx2-290" target="uz5s3VPcYe5UYgjy9mx2-291" edge="1">
          <mxGeometry relative="1" as="geometry" />
        </mxCell>
        <mxCell id="uz5s3VPcYe5UYgjy9mx2-287" style="rounded=0;orthogonalLoop=1;jettySize=auto;html=1;exitX=0.841;exitY=-0.011;exitDx=0;exitDy=0;entryX=0.5;entryY=1;entryDx=0;entryDy=0;endArrow=none;endFill=0;exitPerimeter=0;" parent="1" source="uz5s3VPcYe5UYgjy9mx2-290" target="uz5s3VPcYe5UYgjy9mx2-293" edge="1">
          <mxGeometry relative="1" as="geometry" />
        </mxCell>
        <mxCell id="ODht4TJ9SO5vpi4dF8H--2" style="rounded=0;orthogonalLoop=1;jettySize=auto;html=1;exitX=0.342;exitY=-0.011;exitDx=0;exitDy=0;entryX=0.5;entryY=1;entryDx=0;entryDy=0;endArrow=none;endFill=0;dashed=1;exitPerimeter=0;" parent="1" source="uz5s3VPcYe5UYgjy9mx2-290" target="ODht4TJ9SO5vpi4dF8H--1" edge="1">
          <mxGeometry relative="1" as="geometry" />
        </mxCell>
        <mxCell id="ODht4TJ9SO5vpi4dF8H--4" style="edgeStyle=orthogonalEdgeStyle;rounded=0;orthogonalLoop=1;jettySize=auto;html=1;exitX=0.75;exitY=1;exitDx=0;exitDy=0;entryX=1;entryY=0.5;entryDx=0;entryDy=0;endArrow=none;endFill=0;" parent="1" source="uz5s3VPcYe5UYgjy9mx2-290" target="ODht4TJ9SO5vpi4dF8H--3" edge="1">
          <mxGeometry relative="1" as="geometry">
            <Array as="points">
              <mxPoint x="1078" y="490" />
              <mxPoint x="1100" y="490" />
              <mxPoint x="1100" y="535" />
            </Array>
          </mxGeometry>
        </mxCell>
        <mxCell id="uz5s3VPcYe5UYgjy9mx2-290" value="Terms" style="rounded=0;whiteSpace=wrap;html=1;" parent="1" vertex="1">
          <mxGeometry x="987.63" y="420.00000000000006" width="120" height="40" as="geometry" />
        </mxCell>
        <mxCell id="uz5s3VPcYe5UYgjy9mx2-291" value="&lt;u&gt;Id&lt;/u&gt;" style="ellipse;whiteSpace=wrap;html=1;" parent="1" vertex="1">
          <mxGeometry x="934.9999999999999" y="354.57" width="40" height="25" as="geometry" />
        </mxCell>
        <mxCell id="uz5s3VPcYe5UYgjy9mx2-292" value="Content" style="ellipse;whiteSpace=wrap;html=1;" parent="1" vertex="1">
          <mxGeometry x="1116.29" y="369.58" width="62.56" height="30.42" as="geometry" />
        </mxCell>
        <mxCell id="uz5s3VPcYe5UYgjy9mx2-293" value="Date" style="ellipse;whiteSpace=wrap;html=1;" parent="1" vertex="1">
          <mxGeometry x="1093.8700000000001" y="323.32" width="60" height="31.25" as="geometry" />
        </mxCell>
        <mxCell id="uz5s3VPcYe5UYgjy9mx2-294" style="rounded=0;orthogonalLoop=1;jettySize=auto;html=1;exitX=0;exitY=1;exitDx=0;exitDy=0;endArrow=none;endFill=0;entryX=1;entryY=0;entryDx=0;entryDy=0;" parent="1" source="uz5s3VPcYe5UYgjy9mx2-292" target="uz5s3VPcYe5UYgjy9mx2-290" edge="1">
          <mxGeometry relative="1" as="geometry">
            <mxPoint x="1110" y="420" as="targetPoint" />
          </mxGeometry>
        </mxCell>
        <mxCell id="uz5s3VPcYe5UYgjy9mx2-307" style="edgeStyle=orthogonalEdgeStyle;rounded=0;orthogonalLoop=1;jettySize=auto;html=1;exitX=1;exitY=0.5;exitDx=0;exitDy=0;entryX=0;entryY=0.5;entryDx=0;entryDy=0;shape=link;" parent="1" source="uz5s3VPcYe5UYgjy9mx2-305" target="uz5s3VPcYe5UYgjy9mx2-290" edge="1">
          <mxGeometry relative="1" as="geometry" />
        </mxCell>
        <mxCell id="uz5s3VPcYe5UYgjy9mx2-305" value="&lt;div&gt;CreatedBy&lt;/div&gt;" style="rhombus;whiteSpace=wrap;html=1;" parent="1" vertex="1">
          <mxGeometry x="850" y="408.07" width="70" height="65" as="geometry" />
        </mxCell>
        <mxCell id="uz5s3VPcYe5UYgjy9mx2-308" value="1" style="text;html=1;align=center;verticalAlign=middle;whiteSpace=wrap;rounded=0;" parent="1" vertex="1">
          <mxGeometry x="773.3299999999999" y="422.57" width="8" height="10" as="geometry" />
        </mxCell>
        <mxCell id="uz5s3VPcYe5UYgjy9mx2-315" value="1" style="text;html=1;align=center;verticalAlign=middle;whiteSpace=wrap;rounded=0;" parent="1" vertex="1">
          <mxGeometry x="-193.75" y="524.82" width="20" height="20" as="geometry" />
        </mxCell>
        <mxCell id="uz5s3VPcYe5UYgjy9mx2-316" value="1" style="text;html=1;align=center;verticalAlign=middle;whiteSpace=wrap;rounded=0;" parent="1" vertex="1">
          <mxGeometry x="-193.75" y="641.32" width="20" height="20" as="geometry" />
        </mxCell>
        <mxCell id="uz5s3VPcYe5UYgjy9mx2-335" value="CreatedBy" style="rhombus;whiteSpace=wrap;html=1;" parent="1" vertex="1">
          <mxGeometry x="580" y="610.25" width="70" height="60" as="geometry" />
        </mxCell>
        <mxCell id="uz5s3VPcYe5UYgjy9mx2-338" value="N" style="text;html=1;align=center;verticalAlign=middle;whiteSpace=wrap;rounded=0;" parent="1" vertex="1">
          <mxGeometry x="474.12" y="956.05" width="9.94" height="11" as="geometry" />
        </mxCell>
        <mxCell id="uz5s3VPcYe5UYgjy9mx2-340" value="1" style="text;html=1;align=center;verticalAlign=middle;whiteSpace=wrap;rounded=0;" parent="1" vertex="1">
          <mxGeometry x="635.35" y="420" width="9" height="20" as="geometry" />
        </mxCell>
        <mxCell id="uz5s3VPcYe5UYgjy9mx2-346" value="1" style="text;html=1;align=center;verticalAlign=middle;whiteSpace=wrap;rounded=0;" parent="1" vertex="1">
          <mxGeometry x="712.8700000000001" y="1133.5900000000001" width="8" height="19.75" as="geometry" />
        </mxCell>
        <mxCell id="uz5s3VPcYe5UYgjy9mx2-351" style="edgeStyle=orthogonalEdgeStyle;rounded=0;orthogonalLoop=1;jettySize=auto;html=1;exitX=1;exitY=0.5;exitDx=0;exitDy=0;entryX=0;entryY=0.5;entryDx=0;entryDy=0;endArrow=none;endFill=0;" parent="1" source="uz5s3VPcYe5UYgjy9mx2-348" target="uz5s3VPcYe5UYgjy9mx2-239" edge="1">
          <mxGeometry relative="1" as="geometry">
            <Array as="points">
              <mxPoint x="280" y="713" />
              <mxPoint x="280" y="440" />
            </Array>
          </mxGeometry>
        </mxCell>
        <mxCell id="uz5s3VPcYe5UYgjy9mx2-348" value="lockedBy" style="rhombus;whiteSpace=wrap;html=1;" parent="1" vertex="1">
          <mxGeometry x="188" y="682.75" width="70" height="60" as="geometry" />
        </mxCell>
        <mxCell id="uz5s3VPcYe5UYgjy9mx2-352" value="1" style="text;html=1;align=center;verticalAlign=middle;whiteSpace=wrap;rounded=0;" parent="1" vertex="1">
          <mxGeometry x="349.81" y="420" width="9" height="20" as="geometry" />
        </mxCell>
        <mxCell id="uz5s3VPcYe5UYgjy9mx2-353" value="1" style="text;html=1;align=center;verticalAlign=middle;whiteSpace=wrap;rounded=0;" parent="1" vertex="1">
          <mxGeometry x="-58.75" y="774.9" width="9" height="10" as="geometry" />
        </mxCell>
        <mxCell id="Yb0VxK4vsEoRjDZreyK2-4" style="rounded=0;orthogonalLoop=1;jettySize=auto;html=1;exitX=0.5;exitY=1;exitDx=0;exitDy=0;entryX=0.56;entryY=-0.019;entryDx=0;entryDy=0;endArrow=none;endFill=0;entryPerimeter=0;" parent="1" source="Yb0VxK4vsEoRjDZreyK2-3" target="uz5s3VPcYe5UYgjy9mx2-290" edge="1">
          <mxGeometry relative="1" as="geometry" />
        </mxCell>
        <mxCell id="Yb0VxK4vsEoRjDZreyK2-3" value="Language" style="ellipse;whiteSpace=wrap;html=1;" parent="1" vertex="1">
          <mxGeometry x="1035.74" y="347.44000000000005" width="58.13" height="29.25" as="geometry" />
        </mxCell>
        <mxCell id="Yb0VxK4vsEoRjDZreyK2-14" style="edgeStyle=orthogonalEdgeStyle;rounded=0;orthogonalLoop=1;jettySize=auto;html=1;exitX=0.5;exitY=1;exitDx=0;exitDy=0;entryX=0;entryY=0.5;entryDx=0;entryDy=0;endArrow=none;endFill=0;shape=link;" parent="1" source="Yb0VxK4vsEoRjDZreyK2-10" target="XRhQmhR6qjBcn8VVitBR-52" edge="1">
          <mxGeometry relative="1" as="geometry" />
        </mxCell>
        <mxCell id="Yb0VxK4vsEoRjDZreyK2-10" value="refers" style="rhombus;whiteSpace=wrap;html=1;" parent="1" vertex="1">
          <mxGeometry x="504.62999999999994" y="1074.55" width="70" height="60" as="geometry" />
        </mxCell>
        <mxCell id="Yb0VxK4vsEoRjDZreyK2-15" value="N" style="text;html=1;align=center;verticalAlign=middle;whiteSpace=wrap;rounded=0;" parent="1" vertex="1">
          <mxGeometry x="571.58" y="1135.1499999999999" width="15" height="20" as="geometry" />
        </mxCell>
        <mxCell id="Yb0VxK4vsEoRjDZreyK2-17" value="1" style="text;html=1;align=center;verticalAlign=middle;whiteSpace=wrap;rounded=0;" parent="1" vertex="1">
          <mxGeometry x="508.87" y="1015.8200000000003" width="7.5" height="9.83" as="geometry" />
        </mxCell>
        <mxCell id="Yb0VxK4vsEoRjDZreyK2-19" style="rounded=0;orthogonalLoop=1;jettySize=auto;html=1;exitX=0.5;exitY=0;exitDx=0;exitDy=0;entryX=0.5;entryY=1;entryDx=0;entryDy=0;endArrow=none;endFill=0;dashed=1;" parent="1" source="Yb0VxK4vsEoRjDZreyK2-18" target="uz5s3VPcYe5UYgjy9mx2-114" edge="1">
          <mxGeometry relative="1" as="geometry" />
        </mxCell>
        <mxCell id="Yb0VxK4vsEoRjDZreyK2-18" value="target" style="ellipse;whiteSpace=wrap;html=1;" parent="1" vertex="1">
          <mxGeometry x="781.3299999999999" y="1229.81" width="40.99" height="30" as="geometry" />
        </mxCell>
        <mxCell id="Yb0VxK4vsEoRjDZreyK2-21" value="has" style="rhombus;whiteSpace=wrap;html=1;" parent="1" vertex="1">
          <mxGeometry x="931.6099999999999" y="986.1600000000001" width="56.72" height="56.25" as="geometry" />
        </mxCell>
        <mxCell id="Yb0VxK4vsEoRjDZreyK2-24" value="" style="endArrow=none;html=1;rounded=0;curved=1;" parent="1" edge="1">
          <mxGeometry width="50" height="50" relative="1" as="geometry">
            <mxPoint x="1275.28" y="934.67" as="sourcePoint" />
            <mxPoint x="1275.28" y="854.67" as="targetPoint" />
            <Array as="points">
              <mxPoint x="1315.28" y="894.67" />
            </Array>
          </mxGeometry>
        </mxCell>
        <mxCell id="Yb0VxK4vsEoRjDZreyK2-25" value="fact" style="ellipse;whiteSpace=wrap;html=1;" parent="1" vertex="1">
          <mxGeometry x="1212.6899999999998" y="1064.1200000000001" width="50" height="30" as="geometry" />
        </mxCell>
        <mxCell id="Yb0VxK4vsEoRjDZreyK2-27" value="not" style="rhombus;whiteSpace=wrap;html=1;" parent="1" vertex="1">
          <mxGeometry x="1337.28" y="1152.6499999999999" width="56.72" height="56.25" as="geometry" />
        </mxCell>
        <mxCell id="ODht4TJ9SO5vpi4dF8H--23" style="edgeStyle=orthogonalEdgeStyle;rounded=0;orthogonalLoop=1;jettySize=auto;html=1;exitX=0.5;exitY=1;exitDx=0;exitDy=0;entryX=0.5;entryY=1;entryDx=0;entryDy=0;endArrow=none;endFill=0;" parent="1" source="Yb0VxK4vsEoRjDZreyK2-28" target="uz5s3VPcYe5UYgjy9mx2-52" edge="1">
          <mxGeometry relative="1" as="geometry">
            <Array as="points">
              <mxPoint x="1422" y="1270" />
              <mxPoint x="1092" y="1270" />
            </Array>
          </mxGeometry>
        </mxCell>
        <mxCell id="Yb0VxK4vsEoRjDZreyK2-28" value="any" style="rhombus;whiteSpace=wrap;html=1;" parent="1" vertex="1">
          <mxGeometry x="1394" y="1152.6499999999999" width="56.72" height="56.25" as="geometry" />
        </mxCell>
        <mxCell id="Yb0VxK4vsEoRjDZreyK2-29" value="all" style="rhombus;whiteSpace=wrap;html=1;" parent="1" vertex="1">
          <mxGeometry x="1450.7199999999998" y="1152.6499999999999" width="56.72" height="56.25" as="geometry" />
        </mxCell>
        <mxCell id="ODht4TJ9SO5vpi4dF8H--1" value="Reason" style="ellipse;whiteSpace=wrap;html=1;" parent="1" vertex="1">
          <mxGeometry x="979.56" y="318.19000000000005" width="52.44" height="29.25" as="geometry" />
        </mxCell>
        <mxCell id="ODht4TJ9SO5vpi4dF8H--5" style="edgeStyle=orthogonalEdgeStyle;rounded=0;orthogonalLoop=1;jettySize=auto;html=1;exitX=0;exitY=0.5;exitDx=0;exitDy=0;entryX=0.25;entryY=1;entryDx=0;entryDy=0;endArrow=none;endFill=0;" parent="1" source="ODht4TJ9SO5vpi4dF8H--3" target="uz5s3VPcYe5UYgjy9mx2-290" edge="1">
          <mxGeometry relative="1" as="geometry">
            <Array as="points">
              <mxPoint x="1000" y="535" />
              <mxPoint x="1000" y="490" />
              <mxPoint x="1018" y="490" />
            </Array>
          </mxGeometry>
        </mxCell>
        <mxCell id="ODht4TJ9SO5vpi4dF8H--3" value="&lt;div&gt;old&lt;/div&gt;" style="rhombus;whiteSpace=wrap;html=1;" parent="1" vertex="1">
          <mxGeometry x="1012.6300000000002" y="502.3199999999999" width="70" height="65" as="geometry" />
        </mxCell>
        <mxCell id="ODht4TJ9SO5vpi4dF8H--6" value="1" style="text;html=1;align=center;verticalAlign=middle;whiteSpace=wrap;rounded=0;" parent="1" vertex="1">
          <mxGeometry x="1006.6299999999999" y="462.07" width="8" height="10" as="geometry" />
        </mxCell>
        <mxCell id="ODht4TJ9SO5vpi4dF8H--8" value="1" style="text;html=1;align=center;verticalAlign=middle;whiteSpace=wrap;rounded=0;" parent="1" vertex="1">
          <mxGeometry x="1066" y="462.07" width="8" height="10" as="geometry" />
        </mxCell>
        <mxCell id="ODht4TJ9SO5vpi4dF8H--10" style="edgeStyle=orthogonalEdgeStyle;rounded=0;orthogonalLoop=1;jettySize=auto;html=1;exitX=0;exitY=0.5;exitDx=0;exitDy=0;entryX=0.75;entryY=0;entryDx=0;entryDy=0;endArrow=none;endFill=0;" parent="1" source="ODht4TJ9SO5vpi4dF8H--9" target="XRhQmhR6qjBcn8VVitBR-51" edge="1">
          <mxGeometry relative="1" as="geometry" />
        </mxCell>
        <mxCell id="ODht4TJ9SO5vpi4dF8H--11" style="edgeStyle=orthogonalEdgeStyle;rounded=0;orthogonalLoop=1;jettySize=auto;html=1;exitX=0.5;exitY=1;exitDx=0;exitDy=0;entryX=1;entryY=0;entryDx=0;entryDy=0;endArrow=none;endFill=0;" parent="1" source="ODht4TJ9SO5vpi4dF8H--9" target="XRhQmhR6qjBcn8VVitBR-51" edge="1">
          <mxGeometry relative="1" as="geometry">
            <Array as="points">
              <mxPoint x="607" y="960" />
              <mxPoint x="550" y="960" />
            </Array>
          </mxGeometry>
        </mxCell>
        <mxCell id="ODht4TJ9SO5vpi4dF8H--9" value="&lt;div&gt;old&lt;/div&gt;" style="rhombus;whiteSpace=wrap;html=1;" parent="1" vertex="1">
          <mxGeometry x="571.5800000000002" y="887.2999999999998" width="70" height="65" as="geometry" />
        </mxCell>
        <mxCell id="ODht4TJ9SO5vpi4dF8H--12" value="1" style="text;html=1;align=center;verticalAlign=middle;whiteSpace=wrap;rounded=0;" parent="1" vertex="1">
          <mxGeometry x="508.8699999999999" y="959.9699999999998" width="10" height="10.17" as="geometry" />
        </mxCell>
        <mxCell id="ODht4TJ9SO5vpi4dF8H--13" value="1" style="text;html=1;align=center;verticalAlign=middle;whiteSpace=wrap;rounded=0;" parent="1" vertex="1">
          <mxGeometry x="539.06" y="959.9699999999998" width="10" height="10.17" as="geometry" />
        </mxCell>
        <mxCell id="ODht4TJ9SO5vpi4dF8H--16" style="edgeStyle=orthogonalEdgeStyle;rounded=0;orthogonalLoop=1;jettySize=auto;html=1;exitX=1;exitY=0.5;exitDx=0;exitDy=0;entryX=0.75;entryY=1;entryDx=0;entryDy=0;endArrow=none;endFill=0;" parent="1" source="ODht4TJ9SO5vpi4dF8H--14" target="XRhQmhR6qjBcn8VVitBR-52" edge="1">
          <mxGeometry relative="1" as="geometry">
            <Array as="points">
              <mxPoint x="703" y="1252" />
              <mxPoint x="703" y="1210" />
              <mxPoint x="678" y="1210" />
            </Array>
          </mxGeometry>
        </mxCell>
        <mxCell id="ODht4TJ9SO5vpi4dF8H--14" value="&lt;div&gt;old&lt;/div&gt;" style="rhombus;whiteSpace=wrap;html=1;" parent="1" vertex="1">
          <mxGeometry x="612.8700000000001" y="1219.4899999999998" width="70" height="65" as="geometry" />
        </mxCell>
        <mxCell id="ODht4TJ9SO5vpi4dF8H--17" value="1" style="text;html=1;align=center;verticalAlign=middle;whiteSpace=wrap;rounded=0;" parent="1" vertex="1">
          <mxGeometry x="606" y="1176.0299999999997" width="10" height="10.17" as="geometry" />
        </mxCell>
        <mxCell id="ODht4TJ9SO5vpi4dF8H--19" value="1" style="text;html=1;align=center;verticalAlign=middle;whiteSpace=wrap;rounded=0;" parent="1" vertex="1">
          <mxGeometry x="665" y="1176.0299999999997" width="10" height="10.17" as="geometry" />
        </mxCell>
        <mxCell id="ODht4TJ9SO5vpi4dF8H--28" style="rounded=0;orthogonalLoop=1;jettySize=auto;html=1;exitX=1;exitY=0;exitDx=0;exitDy=0;entryX=0;entryY=1;entryDx=0;entryDy=0;endArrow=none;endFill=0;dashed=1;" parent="1" source="ODht4TJ9SO5vpi4dF8H--27" target="XRhQmhR6qjBcn8VVitBR-52" edge="1">
          <mxGeometry relative="1" as="geometry" />
        </mxCell>
        <mxCell id="ODht4TJ9SO5vpi4dF8H--27" value="Reason" style="ellipse;whiteSpace=wrap;html=1;" parent="1" vertex="1">
          <mxGeometry x="517.84" y="1203.1799999999998" width="52.44" height="29.25" as="geometry" />
        </mxCell>
        <mxCell id="ODht4TJ9SO5vpi4dF8H--29" value="Reason" style="ellipse;whiteSpace=wrap;html=1;" parent="1" vertex="1">
          <mxGeometry x="353.56" y="927.2200000000001" width="52.44" height="29.25" as="geometry" />
        </mxCell>
        <mxCell id="ODht4TJ9SO5vpi4dF8H--31" value="string" style="ellipse;whiteSpace=wrap;html=1;" parent="1" vertex="1">
          <mxGeometry x="-97.77" y="1500" width="45.53" height="30" as="geometry" />
        </mxCell>
        <mxCell id="ODht4TJ9SO5vpi4dF8H--32" value="&lt;u&gt;Id&lt;/u&gt;" style="ellipse;whiteSpace=wrap;html=1;" parent="1" vertex="1">
          <mxGeometry x="-24.00000000000003" y="1296.3799999999999" width="65" height="30" as="geometry" />
        </mxCell>
        <mxCell id="ODht4TJ9SO5vpi4dF8H--36" style="edgeStyle=orthogonalEdgeStyle;rounded=0;orthogonalLoop=1;jettySize=auto;html=1;exitX=0.5;exitY=0;exitDx=0;exitDy=0;entryX=0.5;entryY=1;entryDx=0;entryDy=0;endArrow=none;endFill=0;" parent="1" source="ODht4TJ9SO5vpi4dF8H--35" target="uz5s3VPcYe5UYgjy9mx2-11" edge="1">
          <mxGeometry relative="1" as="geometry" />
        </mxCell>
        <mxCell id="ODht4TJ9SO5vpi4dF8H--35" value="boolean" style="ellipse;whiteSpace=wrap;html=1;" parent="1" vertex="1">
          <mxGeometry x="101.71000000000001" y="1510" width="45.53" height="30" as="geometry" />
        </mxCell>
        <mxCell id="ODht4TJ9SO5vpi4dF8H--38" style="edgeStyle=orthogonalEdgeStyle;rounded=0;orthogonalLoop=1;jettySize=auto;html=1;exitX=1;exitY=0.5;exitDx=0;exitDy=0;entryX=0.5;entryY=1;entryDx=0;entryDy=0;endArrow=none;endFill=0;" parent="1" source="ODht4TJ9SO5vpi4dF8H--37" target="uz5s3VPcYe5UYgjy9mx2-13" edge="1">
          <mxGeometry relative="1" as="geometry" />
        </mxCell>
        <mxCell id="ODht4TJ9SO5vpi4dF8H--39" style="edgeStyle=orthogonalEdgeStyle;rounded=0;orthogonalLoop=1;jettySize=auto;html=1;exitX=0;exitY=0.5;exitDx=0;exitDy=0;entryX=0.5;entryY=1;entryDx=0;entryDy=0;endArrow=none;endFill=0;" parent="1" source="ODht4TJ9SO5vpi4dF8H--37" target="uz5s3VPcYe5UYgjy9mx2-12" edge="1">
          <mxGeometry relative="1" as="geometry" />
        </mxCell>
        <mxCell id="ODht4TJ9SO5vpi4dF8H--37" value="has" style="rhombus;whiteSpace=wrap;html=1;" parent="1" vertex="1">
          <mxGeometry x="88" y="1550" width="70" height="60" as="geometry" />
        </mxCell>
        <mxCell id="ODht4TJ9SO5vpi4dF8H--40" value="1" style="text;html=1;align=center;verticalAlign=middle;whiteSpace=wrap;rounded=0;" parent="1" vertex="1">
          <mxGeometry x="249.06" y="1490" width="5" height="10" as="geometry" />
        </mxCell>
        <mxCell id="ODht4TJ9SO5vpi4dF8H--41" value="N" style="text;html=1;align=center;verticalAlign=middle;whiteSpace=wrap;rounded=0;" parent="1" vertex="1">
          <mxGeometry x="-5" y="1490" width="5" height="10" as="geometry" />
        </mxCell>
        <mxCell id="ODht4TJ9SO5vpi4dF8H--43" value="N" style="text;html=1;align=center;verticalAlign=middle;whiteSpace=wrap;rounded=0;" parent="1" vertex="1">
          <mxGeometry x="974.9999999999999" y="422.57" width="8" height="10" as="geometry" />
        </mxCell>
        <mxCell id="t2Ei5FumYMkK6pRknEzA-3" style="rounded=0;orthogonalLoop=1;jettySize=auto;html=1;exitX=0.5;exitY=1;exitDx=0;exitDy=0;entryX=0;entryY=0;entryDx=0;entryDy=0;endArrow=none;endFill=0;" parent="1" source="t2Ei5FumYMkK6pRknEzA-1" target="XRhQmhR6qjBcn8VVitBR-137" edge="1">
          <mxGeometry relative="1" as="geometry" />
        </mxCell>
        <mxCell id="t2Ei5FumYMkK6pRknEzA-1" value="Name" style="ellipse;whiteSpace=wrap;html=1;" parent="1" vertex="1">
          <mxGeometry x="342.46" y="1148.97" width="50" height="30.48" as="geometry" />
        </mxCell>
      </root>
    </mxGraphModel>
  </diagram>
</mxfile>
